<mxfile host="app.diagrams.net" agent="Mozilla/5.0 (Macintosh; Intel Mac OS X 10_15_7) AppleWebKit/537.36 (KHTML, like Gecko) Chrome/135.0.0.0 Safari/537.36" version="26.2.12">
  <diagram name="第 1 页" id="QQvfI3jtLHe-FfIFpL-G">
    <mxGraphModel dx="1529" dy="888" grid="1" gridSize="10" guides="1" tooltips="1" connect="1" arrows="1" fold="1" page="1" pageScale="1" pageWidth="2339" pageHeight="3300" math="0" shadow="0">
      <root>
        <mxCell id="0" />
        <mxCell id="1" parent="0" />
        <mxCell id="AWYmmsPiJHbBPY1lHnfI-40" value="" style="rounded=1;whiteSpace=wrap;html=1;fillColor=#ffe6cc;strokeColor=#d79b00;dashed=1;" parent="1" vertex="1">
          <mxGeometry x="680" y="210" width="790" height="280" as="geometry" />
        </mxCell>
        <mxCell id="it2hrmfdofYpJrzfupDZ-41" value="" style="edgeStyle=orthogonalEdgeStyle;rounded=0;orthogonalLoop=1;jettySize=auto;html=1;entryX=0;entryY=0.25;entryDx=0;entryDy=0;" edge="1" parent="1" source="AWYmmsPiJHbBPY1lHnfI-9" target="AWYmmsPiJHbBPY1lHnfI-35">
          <mxGeometry relative="1" as="geometry">
            <Array as="points">
              <mxPoint x="420" y="258" />
            </Array>
          </mxGeometry>
        </mxCell>
        <mxCell id="it2hrmfdofYpJrzfupDZ-57" value="&lt;font style=&quot;font-size: 14px;&quot;&gt;1.Obs.&lt;/font&gt;" style="edgeLabel;html=1;align=center;verticalAlign=middle;resizable=0;points=[];" vertex="1" connectable="0" parent="it2hrmfdofYpJrzfupDZ-41">
          <mxGeometry x="-0.1662" y="-2" relative="1" as="geometry">
            <mxPoint as="offset" />
          </mxGeometry>
        </mxCell>
        <mxCell id="it2hrmfdofYpJrzfupDZ-46" value="" style="edgeStyle=orthogonalEdgeStyle;rounded=0;orthogonalLoop=1;jettySize=auto;html=1;" edge="1" parent="1" source="AWYmmsPiJHbBPY1lHnfI-9">
          <mxGeometry relative="1" as="geometry">
            <mxPoint x="460" y="350.0799999999999" as="targetPoint" />
            <Array as="points">
              <mxPoint x="400" y="350" />
              <mxPoint x="400" y="350" />
            </Array>
          </mxGeometry>
        </mxCell>
        <mxCell id="it2hrmfdofYpJrzfupDZ-60" value="&lt;font style=&quot;font-size: 14px;&quot;&gt;5.Feedback&lt;/font&gt;" style="edgeLabel;html=1;align=center;verticalAlign=middle;resizable=0;points=[];" vertex="1" connectable="0" parent="it2hrmfdofYpJrzfupDZ-46">
          <mxGeometry x="-0.1661" y="-4" relative="1" as="geometry">
            <mxPoint y="-5" as="offset" />
          </mxGeometry>
        </mxCell>
        <mxCell id="AWYmmsPiJHbBPY1lHnfI-9" value="" style="rounded=1;whiteSpace=wrap;html=1;fillColor=#d5e8d4;strokeColor=#82b366;" parent="1" vertex="1">
          <mxGeometry x="180" y="210" width="170" height="190" as="geometry" />
        </mxCell>
        <mxCell id="AWYmmsPiJHbBPY1lHnfI-11" value="&lt;b&gt;&lt;font style=&quot;font-size: 16px;&quot;&gt;Simulator&lt;/font&gt;&lt;/b&gt;" style="ellipse;whiteSpace=wrap;html=1;aspect=fixed;fillColor=#f5f5f5;strokeColor=#666666;gradientColor=#b3b3b3;rotation=-15;" parent="1" vertex="1">
          <mxGeometry x="210.05" y="260" width="109.9" height="109.9" as="geometry" />
        </mxCell>
        <mxCell id="AWYmmsPiJHbBPY1lHnfI-12" value="&lt;font style=&quot;font-size: 18px;&quot;&gt;&lt;b&gt;Environment&lt;/b&gt;&lt;/font&gt;" style="text;html=1;align=center;verticalAlign=middle;whiteSpace=wrap;rounded=0;" parent="1" vertex="1">
          <mxGeometry x="235" y="220" width="60" height="30" as="geometry" />
        </mxCell>
        <mxCell id="it2hrmfdofYpJrzfupDZ-40" value="" style="edgeStyle=orthogonalEdgeStyle;rounded=0;orthogonalLoop=1;jettySize=auto;html=1;" edge="1" parent="1" source="AWYmmsPiJHbBPY1lHnfI-18">
          <mxGeometry relative="1" as="geometry">
            <mxPoint x="540" y="400" as="targetPoint" />
          </mxGeometry>
        </mxCell>
        <mxCell id="it2hrmfdofYpJrzfupDZ-56" value="&lt;font style=&quot;font-size: 14px;&quot;&gt;3.Act.&lt;/font&gt;" style="edgeLabel;html=1;align=center;verticalAlign=middle;resizable=0;points=[];" vertex="1" connectable="0" parent="it2hrmfdofYpJrzfupDZ-40">
          <mxGeometry x="0.3563" y="3" relative="1" as="geometry">
            <mxPoint as="offset" />
          </mxGeometry>
        </mxCell>
        <mxCell id="it2hrmfdofYpJrzfupDZ-66" value="" style="edgeStyle=orthogonalEdgeStyle;rounded=0;orthogonalLoop=1;jettySize=auto;html=1;" edge="1" parent="1" source="AWYmmsPiJHbBPY1lHnfI-18">
          <mxGeometry relative="1" as="geometry">
            <mxPoint x="1410" y="390" as="targetPoint" />
            <Array as="points">
              <mxPoint x="1410" y="590" />
              <mxPoint x="1410" y="390" />
            </Array>
          </mxGeometry>
        </mxCell>
        <mxCell id="AWYmmsPiJHbBPY1lHnfI-18" value="" style="rounded=1;whiteSpace=wrap;html=1;fillColor=#e1d5e7;strokeColor=#9673a6;" parent="1" vertex="1">
          <mxGeometry x="693" y="535" width="595" height="110" as="geometry" />
        </mxCell>
        <mxCell id="AWYmmsPiJHbBPY1lHnfI-19" value="&lt;font style=&quot;font-size: 14px;&quot;&gt;&lt;b&gt;Code Agent&lt;/b&gt;&lt;/font&gt;" style="rounded=1;whiteSpace=wrap;html=1;" parent="1" vertex="1">
          <mxGeometry x="710" y="564" width="120" height="60" as="geometry" />
        </mxCell>
        <mxCell id="AWYmmsPiJHbBPY1lHnfI-20" value="&lt;b&gt;&lt;font style=&quot;font-size: 14px;&quot;&gt;Research Agent&lt;/font&gt;&lt;/b&gt;" style="rounded=1;whiteSpace=wrap;html=1;" parent="1" vertex="1">
          <mxGeometry x="855" y="563.61" width="120" height="60" as="geometry" />
        </mxCell>
        <mxCell id="AWYmmsPiJHbBPY1lHnfI-21" value="&lt;b&gt;&lt;font style=&quot;font-size: 14px;&quot;&gt;Economy Agent&lt;/font&gt;&lt;/b&gt;" style="rounded=1;whiteSpace=wrap;html=1;" parent="1" vertex="1">
          <mxGeometry x="1000.0000000000001" y="563.61" width="120" height="60" as="geometry" />
        </mxCell>
        <mxCell id="AWYmmsPiJHbBPY1lHnfI-23" value="&lt;b&gt;&lt;font style=&quot;font-size: 14px;&quot;&gt;Web Agent&lt;/font&gt;&lt;/b&gt;" style="rounded=1;whiteSpace=wrap;html=1;" parent="1" vertex="1">
          <mxGeometry x="1150" y="564" width="120" height="60" as="geometry" />
        </mxCell>
        <mxCell id="it2hrmfdofYpJrzfupDZ-38" value="" style="edgeStyle=orthogonalEdgeStyle;rounded=0;orthogonalLoop=1;jettySize=auto;html=1;" edge="1" parent="1" source="AWYmmsPiJHbBPY1lHnfI-35" target="it2hrmfdofYpJrzfupDZ-4">
          <mxGeometry relative="1" as="geometry">
            <Array as="points">
              <mxPoint x="660" y="280" />
              <mxPoint x="660" y="280" />
            </Array>
          </mxGeometry>
        </mxCell>
        <mxCell id="it2hrmfdofYpJrzfupDZ-58" value="&lt;font style=&quot;font-size: 14px;&quot;&gt;2.Obs.&lt;/font&gt;" style="edgeLabel;html=1;align=center;verticalAlign=middle;resizable=0;points=[];labelBackgroundColor=none;" vertex="1" connectable="0" parent="it2hrmfdofYpJrzfupDZ-38">
          <mxGeometry x="-0.4207" y="4" relative="1" as="geometry">
            <mxPoint x="3" y="-6" as="offset" />
          </mxGeometry>
        </mxCell>
        <mxCell id="it2hrmfdofYpJrzfupDZ-44" value="" style="edgeStyle=orthogonalEdgeStyle;rounded=0;orthogonalLoop=1;jettySize=auto;html=1;entryX=1;entryY=0.5;entryDx=0;entryDy=0;" edge="1" parent="1" source="AWYmmsPiJHbBPY1lHnfI-35" target="AWYmmsPiJHbBPY1lHnfI-9">
          <mxGeometry relative="1" as="geometry">
            <mxPoint x="380" y="305" as="targetPoint" />
          </mxGeometry>
        </mxCell>
        <mxCell id="it2hrmfdofYpJrzfupDZ-59" value="&lt;font style=&quot;font-size: 14px;&quot;&gt;4.Act.&lt;/font&gt;" style="edgeLabel;html=1;align=center;verticalAlign=middle;resizable=0;points=[];" vertex="1" connectable="0" parent="it2hrmfdofYpJrzfupDZ-44">
          <mxGeometry x="0.0113" y="1" relative="1" as="geometry">
            <mxPoint as="offset" />
          </mxGeometry>
        </mxCell>
        <mxCell id="AWYmmsPiJHbBPY1lHnfI-35" value="" style="rounded=1;whiteSpace=wrap;html=1;fillColor=#dae8fc;strokeColor=#6c8ebf;" parent="1" vertex="1">
          <mxGeometry x="460" y="210" width="170" height="190" as="geometry" />
        </mxCell>
        <mxCell id="AWYmmsPiJHbBPY1lHnfI-37" value="" style="endArrow=none;dashed=1;html=1;dashPattern=1 3;strokeWidth=2;rounded=0;" parent="1" edge="1">
          <mxGeometry width="50" height="50" relative="1" as="geometry">
            <mxPoint x="490" y="385" as="sourcePoint" />
            <mxPoint x="610" y="225" as="targetPoint" />
          </mxGeometry>
        </mxCell>
        <mxCell id="AWYmmsPiJHbBPY1lHnfI-38" value="&lt;font style=&quot;font-size: 16px;&quot;&gt;Inter Agent&lt;/font&gt;" style="text;html=1;align=center;verticalAlign=middle;whiteSpace=wrap;rounded=0;" parent="1" vertex="1">
          <mxGeometry x="480" y="220" width="90" height="30" as="geometry" />
        </mxCell>
        <mxCell id="AWYmmsPiJHbBPY1lHnfI-39" value="&lt;font style=&quot;font-size: 16px;&quot;&gt;Human&lt;/font&gt;" style="text;html=1;align=center;verticalAlign=middle;whiteSpace=wrap;rounded=0;" parent="1" vertex="1">
          <mxGeometry x="530" y="365" width="90" height="30" as="geometry" />
        </mxCell>
        <mxCell id="AWYmmsPiJHbBPY1lHnfI-64" value="&lt;font style=&quot;font-size: 18px;&quot;&gt;&lt;b&gt;Collaborative Agents&lt;/b&gt;&lt;/font&gt;" style="text;html=1;align=center;verticalAlign=middle;whiteSpace=wrap;rounded=0;" parent="1" vertex="1">
          <mxGeometry x="900" y="220" width="210" height="30" as="geometry" />
        </mxCell>
        <mxCell id="it2hrmfdofYpJrzfupDZ-1" value="" style="shape=actor;whiteSpace=wrap;html=1;fillColor=#fad9d5;strokeColor=#ae4132;" vertex="1" parent="1">
          <mxGeometry x="555" y="300" width="40" height="60" as="geometry" />
        </mxCell>
        <mxCell id="it2hrmfdofYpJrzfupDZ-54" value="" style="edgeStyle=orthogonalEdgeStyle;rounded=0;orthogonalLoop=1;jettySize=auto;html=1;" edge="1" parent="1" source="it2hrmfdofYpJrzfupDZ-4" target="it2hrmfdofYpJrzfupDZ-5">
          <mxGeometry relative="1" as="geometry" />
        </mxCell>
        <mxCell id="it2hrmfdofYpJrzfupDZ-55" value="&lt;font style=&quot;font-size: 14px;&quot;&gt;Message&lt;/font&gt;" style="edgeLabel;html=1;align=center;verticalAlign=middle;resizable=0;points=[];" vertex="1" connectable="0" parent="it2hrmfdofYpJrzfupDZ-54">
          <mxGeometry x="-0.0771" y="-3" relative="1" as="geometry">
            <mxPoint as="offset" />
          </mxGeometry>
        </mxCell>
        <mxCell id="it2hrmfdofYpJrzfupDZ-4" value="&lt;font style=&quot;font-size: 16px;&quot;&gt;&lt;b&gt;Communication Module&lt;/b&gt;&lt;/font&gt;" style="rounded=1;whiteSpace=wrap;html=1;" vertex="1" parent="1">
          <mxGeometry x="725" y="260" width="145" height="60" as="geometry" />
        </mxCell>
        <mxCell id="it2hrmfdofYpJrzfupDZ-6" value="" style="edgeStyle=orthogonalEdgeStyle;rounded=0;orthogonalLoop=1;jettySize=auto;html=1;entryX=0.5;entryY=0;entryDx=0;entryDy=0;" edge="1" parent="1" source="it2hrmfdofYpJrzfupDZ-5" target="it2hrmfdofYpJrzfupDZ-7">
          <mxGeometry relative="1" as="geometry">
            <mxPoint x="1078.5" y="390.08" as="targetPoint" />
          </mxGeometry>
        </mxCell>
        <mxCell id="it2hrmfdofYpJrzfupDZ-24" value="&lt;font style=&quot;font-size: 14px;&quot;&gt;State Description&lt;/font&gt;" style="edgeLabel;html=1;align=center;verticalAlign=middle;resizable=0;points=[];" vertex="1" connectable="0" parent="it2hrmfdofYpJrzfupDZ-6">
          <mxGeometry x="-0.0011" relative="1" as="geometry">
            <mxPoint x="1" as="offset" />
          </mxGeometry>
        </mxCell>
        <mxCell id="it2hrmfdofYpJrzfupDZ-11" value="" style="edgeStyle=orthogonalEdgeStyle;rounded=0;orthogonalLoop=1;jettySize=auto;html=1;dashed=1;" edge="1" parent="1" source="it2hrmfdofYpJrzfupDZ-5" target="it2hrmfdofYpJrzfupDZ-8">
          <mxGeometry relative="1" as="geometry">
            <Array as="points">
              <mxPoint x="1264" y="290" />
            </Array>
          </mxGeometry>
        </mxCell>
        <mxCell id="it2hrmfdofYpJrzfupDZ-12" value="&lt;font style=&quot;font-size: 14px;&quot;&gt;Datasets&lt;/font&gt;" style="edgeLabel;html=1;align=center;verticalAlign=middle;resizable=0;points=[];labelBackgroundColor=default;" vertex="1" connectable="0" parent="it2hrmfdofYpJrzfupDZ-11">
          <mxGeometry x="-0.4039" y="-1" relative="1" as="geometry">
            <mxPoint as="offset" />
          </mxGeometry>
        </mxCell>
        <mxCell id="it2hrmfdofYpJrzfupDZ-5" value="&lt;font style=&quot;font-size: 16px;&quot;&gt;&lt;b style=&quot;&quot;&gt;Memory&amp;nbsp;Module&lt;/b&gt;&lt;/font&gt;" style="rounded=1;whiteSpace=wrap;html=1;" vertex="1" parent="1">
          <mxGeometry x="975" y="260" width="145" height="60" as="geometry" />
        </mxCell>
        <mxCell id="it2hrmfdofYpJrzfupDZ-22" value="" style="edgeStyle=orthogonalEdgeStyle;rounded=0;orthogonalLoop=1;jettySize=auto;html=1;" edge="1" parent="1" source="it2hrmfdofYpJrzfupDZ-7" target="it2hrmfdofYpJrzfupDZ-17">
          <mxGeometry relative="1" as="geometry" />
        </mxCell>
        <mxCell id="it2hrmfdofYpJrzfupDZ-23" value="&lt;font style=&quot;font-size: 14px;&quot;&gt;High-Level&lt;/font&gt;&lt;div&gt;&lt;font style=&quot;font-size: 14px;&quot;&gt;Plan&lt;/font&gt;&lt;/div&gt;" style="edgeLabel;html=1;align=center;verticalAlign=middle;resizable=0;points=[];" vertex="1" connectable="0" parent="it2hrmfdofYpJrzfupDZ-22">
          <mxGeometry x="-0.001" y="3" relative="1" as="geometry">
            <mxPoint x="-1" as="offset" />
          </mxGeometry>
        </mxCell>
        <mxCell id="it2hrmfdofYpJrzfupDZ-7" value="&lt;font style=&quot;font-size: 16px;&quot;&gt;&lt;b style=&quot;&quot;&gt;Reasoning&amp;nbsp;Module&lt;/b&gt;&lt;/font&gt;" style="rounded=1;whiteSpace=wrap;html=1;" vertex="1" parent="1">
          <mxGeometry x="975" y="390.08" width="145" height="60" as="geometry" />
        </mxCell>
        <mxCell id="it2hrmfdofYpJrzfupDZ-52" value="" style="edgeStyle=orthogonalEdgeStyle;rounded=0;orthogonalLoop=1;jettySize=auto;html=1;dashed=1;" edge="1" parent="1" source="it2hrmfdofYpJrzfupDZ-8">
          <mxGeometry relative="1" as="geometry">
            <mxPoint x="1120" y="420.0799999999999" as="targetPoint" />
            <Array as="points">
              <mxPoint x="1256" y="420" />
            </Array>
          </mxGeometry>
        </mxCell>
        <mxCell id="it2hrmfdofYpJrzfupDZ-53" value="&lt;font style=&quot;font-size: 14px;&quot;&gt;Parameter Optimazation&lt;/font&gt;" style="edgeLabel;html=1;align=center;verticalAlign=middle;resizable=0;points=[];" vertex="1" connectable="0" parent="it2hrmfdofYpJrzfupDZ-52">
          <mxGeometry x="0.2082" y="2" relative="1" as="geometry">
            <mxPoint x="64" y="-17" as="offset" />
          </mxGeometry>
        </mxCell>
        <mxCell id="it2hrmfdofYpJrzfupDZ-8" value="&lt;font style=&quot;font-size: 16px;&quot;&gt;&lt;b style=&quot;&quot;&gt;Traning&amp;nbsp;Module&lt;/b&gt;&lt;/font&gt;" style="rounded=1;whiteSpace=wrap;html=1;" vertex="1" parent="1">
          <mxGeometry x="1183.5" y="330.08" width="145" height="60" as="geometry" />
        </mxCell>
        <mxCell id="it2hrmfdofYpJrzfupDZ-34" value="" style="edgeStyle=orthogonalEdgeStyle;rounded=0;orthogonalLoop=1;jettySize=auto;html=1;" edge="1" parent="1" source="it2hrmfdofYpJrzfupDZ-17" target="AWYmmsPiJHbBPY1lHnfI-18">
          <mxGeometry relative="1" as="geometry">
            <Array as="points">
              <mxPoint x="797" y="510" />
              <mxPoint x="991" y="510" />
            </Array>
          </mxGeometry>
        </mxCell>
        <mxCell id="it2hrmfdofYpJrzfupDZ-35" value="&lt;font style=&quot;font-size: 14px;&quot;&gt;Planning&lt;/font&gt;" style="edgeLabel;html=1;align=center;verticalAlign=middle;resizable=0;points=[];" vertex="1" connectable="0" parent="it2hrmfdofYpJrzfupDZ-34">
          <mxGeometry x="0.0686" y="-6" relative="1" as="geometry">
            <mxPoint x="4" y="-6" as="offset" />
          </mxGeometry>
        </mxCell>
        <mxCell id="it2hrmfdofYpJrzfupDZ-17" value="&lt;font style=&quot;font-size: 16px;&quot;&gt;&lt;b style=&quot;&quot;&gt;Planning Module&lt;/b&gt;&lt;/font&gt;" style="rounded=1;whiteSpace=wrap;html=1;" vertex="1" parent="1">
          <mxGeometry x="725" y="390" width="145" height="60" as="geometry" />
        </mxCell>
        <mxCell id="it2hrmfdofYpJrzfupDZ-28" value="" style="shape=image;verticalLabelPosition=bottom;labelBackgroundColor=default;verticalAlign=top;aspect=fixed;imageAspect=0;image=data:image/png,iVBORw0KGgoAAAANSUhEUgAAAQAAAAEACAYAAABccqhmAAAAAXNSR0IArs4c6QAAAARnQU1BAACxjwv8YQUAAAAJcEhZcwAADsMAAA7DAcdvqGQAAKoVSURBVHhe7b2Fw25F1T7sX/C9/Rp0Sqe0gnTDoUUlRBGVEgMEsUXBV4lDSikgIggSkhICUpIW0nEo6UODisy3rhUza2bP3ve+4zmAP+ec65nuta49M3vfe7/j9ddfD3//+9/D3/72d7YngdfNfl3cEVSXwOLNX6Irrh/+UQmrAeks7T9e/0eWD/7XEfYPCRfb/M7tUQv7F9rhx3HYsSvz2hz9A/OHuXM2hSGNze2U4u9AKcPwE5w+JH0RHayhTDsufP1ojyOAvzUS/71GCrV0LTBFZ7cL/7uFw/ZpdKDErfnj4PnB7IMh87DQNJHIoRmehE0BIYvCqek0TUpPQujTteB17/dC7sPfZsj6ZMC4qGLymMWxycfIz4/k8UB+KaNEqfRcx8SQ5NSU/u9OmRHu5XvWo9TV3I/2voM9pNRGAJEI2hQd4T1XC6b0Xvnb3LUwuIdW5AnDBMbbERBMbxNgG5LC5mlzRbYwtavoSJOVBdTSdJU9hWir149D5iZYfAx3bue38fb+NO7NsPFQk8GmfLLcarjJsJflMmwygJ6azmoY206Poy6bLQBpMQGw0mvmv1EiIQGXmPyyRfAFufgphg02+zHYYFsOs8kw1k3+WQURtPrVB4BQs03Ca/4o+CbwKthxuxHDCv8gDJu+C1ZWnzKraYr+KWSsUryME/l5jBDmwskvY4Y4Gz+B5JtVgAySDfkisEyqPLYp9vgKP0C/oo46OEUXnU7+PH0q5x1/c55IBAS4DVIAwmGLP4ZzXvK7ciYJGfQyTMGTomEFIdiEvRmkAHhBTcKbhDimgWKwQqgdgTRFOLsreWC7uD5bjIHw5Xp/GW5h3F70SfvYiBc0+sRhks8IwI8N3H1g+SYOlbUkeyncZNHixofpU80PHUs6J7qqQJy6TWcNFu/TpjJtC2CwTOQuCzKkAshmv2uMlWNhzj8p8ITQBHi3kITC/DZ5SGsMPouQC6MIfXInwY7CD78qLe+ToQwWx/kErDg1IP2g8DJNLQ/CLLwjPdoYFdnCyG99apSjbs6jsL7FeIbrq0tjYbMEJlMVt+3n2T2lcHoV9cyB/KaPpntdfo+kp2JnKwCrtJapEa4FCFIa20pMJaDgYos7TZKGxyWb2oo8LoVPKVjwxW1CnfzJzQoUlckrQFIYJgn4OR25Nb1HVMzS9qjGaXkuLip1TIPwij/Lo30pwhMkv6RLbisnhpttxKj+KUOUB5IPkxuyo5xF5ddw9U8dVJ+inpl+aZjqm4XV7BKcF9Ay0Q89A9BKObJOAoAVEP2aV9zil3KkwVlY5p4wbHL8pEVFV9v8E4AJZ1+IcAO5ILNCRAVIdqk0Uamjkmp+DnPwab1dS9uBrAxzm9/cBE7n0jDZMUlZOyU8xqPdHK9hDD8euT3rUMoI7CRfJlMRmi6FefewKPXC/Ko/qnOmd6XfA+l9mka8gt1aX74FIFikz2jIC0iFcDgqj2Hq5/BU9lSAJyu6dUIt3PyM0j/rwAphbiiEQuLUjmEabwpibotXm/MVcZmbEM8CivCJoFZ/F5AeaTk9jQWHybjw2BhxmF/BadX24ZNFkg0cMrNssVylVSPbzi1pxlF8g+hKZ5zTOzsHiIf1Fq7uPn6rD/2pEoDP4P1VaGGxsQ3k5ae0tfAB8IOvkEmTzrCfl3ISXk5u3T8ZlMLZFFYogNniFqWAcKuSELxflD2PHwaRTDwsrBbXgkg6Hj7/oDJr8TwWCusj+q79l/EBvFsQ800Upcw4eYqyRraGM7y75mf0kfVaGguDLXrG2/VC/0ypS7ePz2wtD2UrAeQs5jMzUDEyujArwPtTuIeVW7q9vxs2ETXYxDAB0MRZGE+i2RPAYKHLBZoFnYWd3CbwLNQizJyGBV6FO0uTx/s4Ky8qjKL090Kj7CFR5u/j534ZNIxt8nO89oXHII1FRIybapgcJRmKMleRR0tfhg8F1h9x21Ve/OYWsJ6Z3pW2xhtKv4UZ0OZiBYAIsi0D/MjkMsfCsjw1WLxPV4b1g02ALcnsim+TIVd9gqb1EzcqcoXO40okASZbBVuuvubXeLjNH90u3IfVwj18GQMwEkHMKvDYoH0Yy6T0Fu7H2QjAwqtppgQiTyKLKpdmO7SRwHjkYHojesV6WALhFleki/qqfosXVAmAYAd7LmNWCJAVJBBSgNvbJdrC2xEV3SbBLct4Iiw+pikncGogiuoEUoU6xkUCkHBzS7ym8XEebeFTjTelXhu70nbxfozNrYB7MhD5ycCylGTMo1Rslj+FD29Hly54PRK3X41HHXQ2xzl3iSyf1tPYAkgBZGtizkjhYhcFIn088fd2G3x8d9rq4LpJ8EwsEyVhjQmcYrAAZgKLMFXyGObgFaySRlYOHeijoG+KEo8JHktxZ4eLbOs46VjHcVcbaWw+JoLyAmKy5eWuLawlfDiU+qS26Rz7CV4XC9vcNX/MT2VVCEAq4FuDPjOHJbelSwXm+XP/aMAgerdNiCi9+OXHQh4p3VSABRRCyRDhYwGMgmnxkpbjYf+/iq7+V+IiAfq4Ml30Y7xtzJtzBRhRTAYmh04mFSan46FNbyzcx8OtgF4625Td9NX8EZxPyim2AIJqAVYZp0kFJH8ZNj5EmXWQddAl3EhAJwW2hk8CJmDiduHu6tMQRtgWFwXUCbRHLeyfFNU7CINQHbNi3BnFvHC6djIYHyRjkDMna/LbFCeX6h4fXp+83nm3DxN4nTUyMCTlN7QQQFR+JLLMWhhnZBtpvW1w5YwBHmDY7Fab4SYjs83t/cMjCpBT9hhOAubTeSRFV0H8FwRxXCaJNMY27rLqEjvOl87VODAFz/wcpjbJW1yRUjqWXU6fy/P4IN2Keqd+1TfWU0JUckNLmM9bJwCAEjMJxEwIzzPnYerm9BY3PGwQzR0Hu9yXeVi6kaHCAqEiOwoth8Ev6Tic04ptQijuJJQTgS//XyhQGWuelzSfCEv+SaBNxkhWvfJXFN/L9EShuhYJQPWwqvRkJ10WoF29CCBmjAVU0seCzV3GD4YfqGyQ2V+ExXDYRfgEkCu4V/4izsEE762LNyphb2/4+RA3Qd2zEmllILI63uPBHm06Z+FesUX5GRpuq/gIzWPltBwCEpA5ZhS/zygwf1v4CCjYtKr4EV1x/WFXeEESnihYKmxCAhL+1lf2YfE2JQeeE3HLak3dNn86lwlpfqcCUW7ZTrplMl262zFIhxCvSs66mcKi2+JKuHRVApACreA8g7dt6eHzjgthT4IpN4c1B3rqoMptYCEzYXJhBf75COFNRq/xTAoPYP7YTWHmZlLQuKmFKDbc0CmWYw0rZbw/eugW66h3i18UX8MINV1G2+orAM4It2RGWFJ2D5eO85o9AWBQyZ7UVX4QckFywuTQONHuJaT/wvhozgXDzVFzlYY4tXk+JTzNdz7/Q6EmlzEsxVXlesogOhkVHUpvtkJ0GUj5WrcAVpDYFm4FGCws5RsXPHA6eBjIuBKYYvirhggHBEr9bwlgif52Waa/Se3kOSv8GlbON891JWwyIJmF/GZyrfJsfhc3Hkj/nGLb8zsxLLoRruk1L9rQQgCJSVqv/Jqu7h4ecUBoAOVARcOzgZ0sMgFwQpIEqEkAjVXA/9N4KxBSG0kjHHOsfpvnKUOS1SjTzi0XMnWPhYqesWIbKN4rPacXf/6ovqDjEBDQzBzmM9bCav5+4IFjm8D7p3xApwKi3Mktthegtx/eqIQNgzcaCv12WXEodE7zsLSy87Zt86YELMMmvyTjin5X/UE6VIv3+khwyp+t5DN9lvZ0HAKa3zLmaaphI8IGi/3sFv9UgoXF/CooQgAabwL0FkVN2aHABgl7mynwRFCZO53XFJfm3uZ7MlA5dvIL/YokAFk3mVd7coA+mk6a26E3AZhik50TAZAXMC5kgJyfwwTxvuqISBNcY3oNM6FgATEhMbdgapb8oypmM58ngvoV3BMC4Q0fD9TyiFvKLuM9uuLeYvDkDjcDbkEuH30hMlyGidLX3CrjkHf1jw7Tw0If43YgxdsqIMHSMAEkTxMpg5wF1NIYBsUnmKKzWwfOWDOtAFLcpMATbUqehZuAvHVRV27v90hK38xXB5S9K+2424s3C5hvI/E43+o2UojpNH40ePnN45LMk18vuCb/UwfVWyi/wYUDaEP7GUBEyjBJMAua2w2MxaUB9O7hgAnO/QL2uwk3YYkrAM2Xwmct2pXdK3WeJim8pTMS8GnNrtXRDz5fkxRGK3NqgLlObr+SSyu/JAM834V/coAMk2zDVhlPsp/CyrjxobrbsgJAfQMIgBJXmCOLb4T1g1d49kdFF7vGpMPAJrMxyRAAIwZT+BJRcN585ApXVzALh21XcnMbEVgan15QLzNHnqZU/CYRdIe/qdC5tecCmvKR+8dHkmPWNdgcluTedHByBAC9LHWzqcdoU88VgM+cCsjd7bDOCvL6eGDcIMmAef8k4a/sKdwLxlsVudKaP+GNN8h2+3shAgKFl3lTmrbwhGZcylPGD0o/PiZQViYDgJOPQvknuyIgmVb5N/nO9MC5J4J44QZKvZX60I532EM3Uw1T7OSWgTE29GHpVuB44MnGpDoByA71OJ3zTxFqitENE/RS2bw/XdlzpQQZJLeF18v08XkaiSvja2kkvFmWwkjJk1MHKc1SQEbI5pWgkxu+UCA8CxsPIvfkhs1AuLmTXrCt/v5ovxDHg/yMEASoL34efDDwIEF7RV2wjonbBsPCdSB0oCYKTKxOdqboFJdd8WcBCQi80Ks7KkMOvqLD9m61kQ9KztA0VmYqC2WLskl6LQtu2K58jrc8mjaWYeljuKUVpHzJ9mVGt9bPbdJwi8vzl+5Zh7RChOwkApiKbQHrQLEanlIUBMDEQ+1IWwBqmE8waXhWi8o/QcW3pV0jXCcyTbKGGTlMXPkhvARuj7XJ26W7VsYAWF5yZ/nhbikvWwVpGrZdei6zlt/Se9TyujiPRhqE+XhA0/hwgYxVjGfoGGdhkwBkQgE54boVo5IAy7sPM/kXv+mD6UaJ4VcDbQABCAlw/bAJcQUwuYqasMqsLg6Lg+HtyQCTycKDSS2Ex+KnAihbPrP2eviXmazBagFygyVtmsPJkYCXC3arX9xiTxKmA5mtgNtQ6s3wqK/ajQT0DEAr6GCirn3GIFgnfGfYb0zE7tHhJ4hZm9mawnRCpxZvcF2l0v/1r38NM2fODM8880x4+umnGc88/Qz763iW8azhWbFrafIwh6L8p+HXsKct3IXFcPO7cKsHZXA5Go70lqeMy6H9oX5EN2ztV95HF6b+mOfZmeGFF17ksfbGZGhqVgIEJz8mWx7Z6mAUkLyI2+kEIbM79XFMaL05AUwVXEeSwpf2iOAJkkky1m5OZApvkALFZ/YwoH0t+mRmxowZ4bjjjw+77LJLWH+99cP7V3l/WHnllcNKKyWs7NyClRRleIEVxUb+lVdaRW0ClS+gMABpHby/jMtQtHMlLs/81kZrJ9krrhRWLODD4LY2G2Kbtf1lHLch9kfDyV511dXCxhtvEnbddbdw8smnhIcfflhHXIigPLMYC14OTJ5Y1upE0B9tcl7oBLlNVzzawkcB1wdQne4QcLIkIBWonzuv4bDVHzsd3SOCJsn74wROKZLyP/H44+HL++0XllxiyTDnnHOGeeaZJyww/wJhwQXfm2GBBYAFwwJws5/cDgsuSICtyOLM7cqLeG+BIu69HLYQ2QSys3gPike6apxDbL/B+jUp0DgwnHu++eYLc801d5h9jjnCUkstHb7yla+EJ554gscf82Bz0psI2gg/CxdZ8rLlMbFVAHREdSPFq+70wCjkEAlgalcA0rnUIfXHsNGASWqEZ5MlExiv9uVkt03+EED/YK644td0xVsxzDH7HGHRRRcNiy26WFhk4UXCIossEhZbbLGw+BJLhCUIIAcAboF3DwPkk7KWXLILS0X3EoDlQ1glL9L4cEvv8w5Grb0OVhZshsWVecW/+OKL8xhiXBdZdBG2EbYI2SBarBAuv/xyngfMx9irAMhFlB29kHAY5Etsi2vI37Aw5W9BrkcVKEEMp/x6CGigeuJdgEnckpDGV8IN1uhoNzveB5iU5HZxNmE2SfC7iZsU0HaYs848K8wz9zx8ZV1sscX56gjBXX655Wj5u2Jcyq5SwMLHQVlmGxp5afkugFvB4WrHdJUwBZe9CrBKAm0ZWuscBVR33HbQWIJkl19+ubD00kuHxRZfjElioYUWCvPOO184/fQzeD4wLxPbCtQQ5aiQuwkBF2NTTPbDTfD2JBDLpDrcg0DjE0BEQ9GlUvbDzcg7OzJoQmDbJNnV35Zvk0Va9v/m6t+EeeeZl69QCy+0cFh44YXDCiuswAK7ItkA/OZuYEUB0kRoWDV9DaoYBiiKoYxjrAC7nrcKS8f5VqQ2uriBsDpgG0o/wffHIY3L8g4UR2XAXmqpJWWFQMCW66KLLuZ5gRxPDQlUZM9diMaG078UBj/cuT5NAqZ7kQAmsQIwRIYxcB3Skdi5kSFKDrctzyIzq/JbunwCNa4S1hdcJ9k45cYVD3vrRRZZlJami5FgrkRXqOUZSXgFNQEv0ZWuWk5UKELpz+IsrHAPAtJSuVa3QJTPI6+3BkvTApShKMtOUALQ8bUxxmoAJLAwbbeWWmqp8MADD/KBIGSvnLuh0CY7KncTVfwI6EZTP1hvWIfqOjYqrMyJEkDZSAuzynLkHe0PP/g0MQwXb5PlJi4D0tfCewC/tYb59re+HWaffXZe7mOvb8oPAW0Kb4IX9r7oLIeViJTMwtXtFVDS06oAKxMX3g5ZdsPt6xRQPMVlYdaGKhBXAeXzyMqrQgnAQUhgeSIBOeuYe665w2c+syvPj6wC6nMY0SEH/q5Rlo7ckDFZDUySBEqdIN2JYapHrEOmq7mODQPO68ru8WOgEYDCyZaDDvUzqC7nHhc8ITpZab+PiXGTVqIrrgNoN8xjjz4Wll5q6bAoXfkXXniReEWyq9Isw/IrhA984ANhnXXWjfvwddddN6y66qqkZCuG9dZbL6y15lqafkW6Ui4R5qP98nzzza+Ae74wL8DhhvnD/PPPH5ZZZlkux9f5wQ9+MKyxxhpcr4WtvvrqYa211+J9O/xQcIvrp9yDkMZ3eSMAHmuzVwhLEhGDBHAX5dZbb+V5ghzW5nE8JGKIcujdiuHPB1QfoDNws9409dLCfNwoZCC6KeU4ApAGlIl7gRrt3VyO2tI5uH1nAfOPD5uQPsrtiaKM6wIe7IE55eRTwhxzzMFLTxxErUBKkgjAUBPkcZGXjfpW/cCqYf31148EsMEGG4TVPrgaK95GG20U1l1nHU6HFQBuS84222yE2Xn1Mvvsczh7Du7THHPMyafrSIOzjXJls/baazOg9NLnFcKaa65JxLNOJICJgutogtsD6Ji8733L8hZg7rnnDvvssw/PF57ILOdwHMSLisqbKfnwyj4MnK6ofpniRn0bEpzfQOWk5wBGKBSNi24L1zCpxDqhdkYC5h4CPBHJHydBw71dQ+fKoAtUJh5Bhdl99915uQkCeN/7lmsKZlRUQ0WwR0K9bCzXrf7SzVdwbtMK1Nb3hcUXk9tqBvjRD8ES6ZYlXU2lHKpX81tduPpjG8Dx1AbUgXBLM1FwG9rBYwCbAALAXQEQ0iOPPBJefPEleWyY5m/kefdbAYDKSbLn3EgX7RTeD226AH0ReL1quEdALJvqeUc8A1C7D2KjSmhn4EYlEk6dUb9VOjZooM3OruQjT3Q3pF65qkybthktkRdQJZErcSaQDVQEe2Q0y/f1L79c4SeYgiC/7Mtz8F0DUuASSM8EkNWv/bV6uQ1pDMq04wNlal0V+L4tu8wyQmpEZr+94bf8iPLM554Lr732GsvglMgGyrRyVTYnuSJgPVKdSW7RM9Gt0WHlTuZJQG0Ql2UNjGGGeie70BxUUUYMuoXbZLDfJqaGYQVAJ1fqpRUA9eXRxx6jK8xafN9/qaWXZsHLBFIFNqEm1OOgWUdUxhKWh9yctoy38Kz8YVDmH6esNlgdzbYbLB7bgCWXXILPLy644AL+ncFjj/0lPPfc8+GVV17lA1yTnep89wHnhZyprGlZJpcGlkvn7wu+WJq/ZbXMOgWdA1THTM/M3QcNAjB7GFilaKz4UwPhtsajoeL3qIV1oaLkceCTO4sfE1Ie+vS38NzMmeGee+/l59IXWmjhsPTSy5DgFQTgBFJQE+pRQXU4lH7fDgancfliWImynr6YZFld0LKp/SWJeXJbbrnl4jnAGWecwYr/0EMPhyeeeJLcz4WXX34l/PWv9nPYMeXEZA1yx/5SVnOMQgYJ1F4mA7S7APUF/RkFUobbAvRdAdQqzcKoYJTJJADEjoyHeLVnvw48bwXMjUlBfPKPC6v7hRdeCI8//kS45557eQ8MAliGlpw4XW8IJBAVAqgJ9bCg8g2uvnGQ2lmrz+DjLf0g+Px90ZVPy9U21/vgCGCuucNpp53GSg8CwCrgqaeeUhJ4mbcEWM3J3NbnvRNFHi7HrQhMZiYCVXzWMVN6VVy2Vcei7vWE100hAKsQbpewD7gBsZGuLPVPEjzgTumn8gyA6yNAYPCjk788/ni4++57mADw1J8QQGUFYDDBZZggl8LdBsk3SYWvIbWzvQ3jo1a2R1d68hdtLmH58Pj1Uvo8wE9/+lPe/xsBPE5z99RTT+ckoG/ISXJVl4MGMhlz8sfyArkR2SnRdxVQXy2XUP1TEsh0cQBYLwGt5x3l8r0LtQpSgdo4Czf/xKBKSYNtdwPSRAh6T2IPoHzsG2fOfC489hcRorvuuiu8//3tBOCRkUEGJ+B8iCi2hcnBoke9/KkC2lgLb0PsE8P8Fpb8sZ/R7+Nyf5muC0YSWAHwA0Fzz8UEwCuAh4UA/vKXx5nE8R4DJoGXXgqvvvrq5LYEinhhYnlVWVX3aHC6FXVKbNM9r4fmHgQpS8oZ+hDQKmpUSAUae3kW86uLbtQGi8IwiMVANgbdBt6FjwWtB1eLJ598KhLAnXeCAN7fiwBKQKibyq0w5a8SwCDU65u1SG0xBYa/1mcfJopeCcN4sL9WVw5bAWQEcKpbAejcYQv35JNP8mPczz//fHjppZeVBP7K78urydawSBcmlVXza9lWvrl7AbrWcIvOsV91z8IGQRTfEAlAIO56RoPPLH4oeQqbNHhpxYOWBs72/lHhlQAmAq3jr7RMxBt9cIj02GOPjU0AJuDxdB55nbsEk0ENVs4sQdn+oi8e2r5aX0ZFs7++PYK4BVjeCGDucOqpp/LKzW8BAKwCcB6AtxI9//wLGQnkWwLIXUU2BiLJ7aThL6oM00cDxZuOdiGll3LSIaAGlBkGAhVr5bFxY6PGkjLIcPsBZ3uCBIDycUV46cWXAl7jBaHpQwBw5/fS05tusp+5TjHsrTr+zToD4duo7e6Ez/smIRt7ttsI4DHeAmAFgLnEKgDzCnLH4S5WeWklAFkWeYuyNQTkTIryK4GY3Io9Dky3vJ6JzX4Lgz6qn3WzBTkBuDMAK7AXVPF9ZVbG5FYDqvDqj4PtFH5iy34A9VE/IBDYK3oCwCGgJwC+DahXJQgjCIHfuPPe94aFyMZTaQkLh4XJFizc8CeUfgXVx6jFFfB1Sj1lvMG3L+G9APpRhmufOF4hcb5MX5fES52WdhB8Wcmf1adjgScbPQn4LUAigIfi3D1O84i5xIqOVwF8HvB8ePHFF8Mrr7wiB4N/xYc0c1muykkXIJuabzLKD0DXSDfVbUh6p1B/F1j5Ac5jK4AIRPYjAd8Azsth1kCydUsxPnISEIXXiUG4DfwEgPIhBC+99BI/SPL0U44AaC/JBLBKIgAsSyGEELytt9o6/PKX54dzzzk3nH32OeEXv/hFOOssAdyMs84iiH0WcOaZEWcCPxfbhycgvcLyc3kGV0+Gs6P77LPP5raJbYDfwrxb/edI2C8sTv0cz2Wn8uHmMO63tlHbfGbZbmsblQP3WeaPZRnO5vRnIh/8lP4casMmm2zCPwfG+JeHgNUVgCMAnOvwk4K6CsB842GhdHcgnQkkmeuGyaXcpTJMigAcSt1j/RO7NwGwjgJxC4CCBabMlthn9rA4aVgKiwQwIdi+igcZ7GrKzzbFRf8YUNZGH3D1xyERCABXCgjNo48+ygRwx513hlWIAHBVEgKQqz9+Erz7HnvwbwX+ZWaN+djHPsaP/eJx5rQCWMIRwMy4AvBnAEIAWAU8zW8dtlWA3wr48wCByMlAInAXq3jBGhuFPjmdY70zm8JNB83dBq+n8RBQChclGFQIZ4ZbC0mNSg1L/skBg1xOgk3OuED5mHxcDbD8NwKA4EQCuAMEsIoSwNIZAeC36CjjNb61JGMaQeGNsDcdNp/e3RdlWeOgozyMWzF2WKJjnHfYYQf+AZMnALxjMJ0BzAwz/BbACICUXwjAtgHPuVWAbAWYBOz9eVQXoyIzDUSiUHm1vHAj3PnHg+oYt0/mZJiVe8qrBGBXf3Nj0EsSML9VmiD5UuFazhiITKoDyUrOfgvHIKcBj/aIQJloP64AEAYID4SjkwCWahIAzN+pLW+8ERRvOPdUAvW8FVBrm0ctj0ctj4e89ReGCWCJggDIzwTwk3wF0NwCJALAVgF3BPDrQVsF+K2AyLXK5YDVpieJmEdl1/zjw/TMK3Q/5Qdy/QUBsOKLp1GQVcIEkcK4ch/Hbsk/OWAg8zAmhkks+T2oXPQDrA8BwPLfCODJAQSw3HJNAkC7TVhbhZrSRVCAAd8ZMHh/dJPwx+/qubDx4MejFt+EtFf7wu5RYPkd4phUoGOF+mFAAHgfw4orlQQwV/jJT36SrQDS8l/uAuQEMJPn3LYB2SqgsRXokj2TT/XHPIkMJoNcV9kNvRyA7AIOaBlpC+AUuJEZ4VHRi3A0aILKn7GlIwAJl4FtDr4C8bXwDqBs3PZ77bVX+dYf9oSRAEhQjADwQIkQgJ4BjEoAlAaA8iLt29HkffJK3Real8qyceC59XENSF4jgB133JFfY94kgLmZAJ4dgQBeMgJ4NSeA/OJmslOXwxjPfUqyKysBS+PLGwXQPeidQ6GbNfi0VlZ8EtACykwMLTxWogXYakDypjKGRnGlB2wA2ebB1vCWgR8JKJsm92802Zh4LP9l/z+TbwEaATwCAiBB+vMdd7hDQBDAcokAdm0jgFzgAQi6GQgZ9p+Cl8PLAAkiu8nuAwgu0gusrOHwYoYXWSHYNjfhhRdlr8x9orbHfsHfQFe4wJTZG8yLT5MDBCCkCQKAwqctwPuEAOYSAqivAET5WwmA+gY5kG2AEEC8LVglAchm7kacrVJFfgUp77gQnTN9FKWGLpoep/ayrhaw9KaviQC0g5YoZtACMxLQzAxX2CRhg2bsyW4dYBvwcYEy0Scs+aBIiQCerRPAn4UAcG+7JAB8tgpmEAGY8uPdgvvu+6Ww+eabh80224zszciexjbCxFYg3uLIvdm0aYRN2Ua4+adtWgBhHEdAvgJWfubfguregvybUx7CtM02DZtO2yRsutkmYROyN9hwg3DzLTdzH1Jfy/5an8swC0/jAMG9/vobwm+uuYaU71UOk22GlevRhwA6tgCq/EYA+G2AEQC+PygEYOcARgC2CvAyXpcnvsIzcjk2+R0NVi/0zvl9e9A+hCNM28rtdW4fJmUARACJObQSl5ihYVaJpRcSkHBf4CQgg5bcEk6DWBv0UYEyqe2YYEw4Jh+HQd0E8Gc+A0gEkLYAfQjA9s8Qvo033jjs9bm9wo03/jb86U9/Crfffjvbf2KbcDu54W/B7ZQGedCmO2hlgtXJn+8QdwN3wr5TUcQRkI9BZXE5ZN8OUPm+XVwfxb9MV0npk1fUZn8T8nDMI8y9994Xtt5mGyKcLcjemohmWrjtd7/jOMyRpU/oJgC8HHQuEMApRAA0j54A+BCwIAC/ArA7AbgQ2EFgvg3I5TuXpWQzObCtadhO+SaPpH98p4Rtba/aHqyvgObPbgP6ROx2hck5gYRxZlRGfitoUmDFzAYsDSy7ddBluYX0Em/hGdrCAcqL9mOSsezD/h+CAIGAYOQE8AgLEpQCH+DEE2lyBlBZAVDZJqyl4GMMYQ499NDwiU98gt1vV2N9Evi+pv4mlHHy7v6Pbrdd+O6BB/Lv8zEnx59wApMAiBhpmiuBggDibcDlwnLvcwRAKwAQuX8OIF8BPBVXADgreM6tAPoRQC6LIk9OJmHbVhXpVE5T/smB22YEkOlrgim9d9sFW24DckGpQI4sMsRwzRjzcVpyc3wKF9TC+sGUVwZaBzPaDppOUIlvAerAs9+YaBAA9oCeAJ6qEcDtJQGkFcBuu3WtAESQEQez2267h5NPOZnDIWwYW0NtlQNh8oLYBijSpFArH+A4jB0BfcpRKqyHjIONwV133c3K/gr1H4aSsNmGVgSXXmbf+0MdvsxEAOVzAHg0GCsCWwFEAviL/BioawuQE4CdAXQTQDlHDApn2SW3pTW3kACF0Vxa3HjQNilY+TUstrfiFj0FpBxZASCAlVgIQMhAM1scp0MaKSAWrAWNClbaMkwH0uJrSjEWqFy0HZNr+38QgL8DYATwl8f/wm+ZnQQB2ArgsEMPC9tvvz273+4G/RoGRgD3339/2Ii2QViqe4MziyuvvIrdOQHIOGL+YIQA0pOATADkFwI4RX8O3E0A+RZACSCeAXRvAZJ8erlSeD/ZtXzjw9qT9NGIwOtniSoB+ABReAErPMCZ1B3TwjZY3HiwK3gWFt0YUPHHAR4FVA7Kw2BggjHZcgAIApD9PxMACQgEBvf/QQCPFgSAT1T3PwQUIfZnAJuQ8O/8iZ3DJZdcEq67/vpw3XXXhWuuuYb3ojCWDwYC+41vfCPsv//+4atf/SrbX9n/K/yJbA/Efe2rX2Pb3F9TdwKlszxczv5antj77/9l8XMajWP7y+HLX/4yu/fdb99w0P99jxUGpv3QroSNA8boDSbNz3zmMzTGj/GYf/Ob3wwf2nZbXpEh/h9vSDoP5IXZsSAAbAGYAOacM5xCBJC2AH1XAHYG0GcFIPIYl/nRLqAEwBcxlTufv7zwjQbRwdQ+p+jabo+kr2JnZwAJmjBmSuHCMCltyqt5XNwosEERRVc7DiQGPbkZLq4XdCLQLyMA3D4r7wAwAZDQNAlgZf61H94/Fwlg4UFnAIAoAZQFBmVDqbfeeuuw2eabh2mbbcYn7L//wx84nvuJDGRwgPX9H/wg/AA4GPbB4ZBDDgmHHHoonycIDlEcSuEUdwjZDLgVCM/yJBx22GGC6QnTp08P0w8/nO1DD7OyDg7f+973wrHHHpuW76ST1r9umBKLDeX7/Oc/TyuBjcL6G24Ytt9xh/DAgw9ymZirNHYJCIfZcYcd6ysAIgCsAIQA0gtBugggWwEMeQjo3R4mpylP7s/j+sLaUOgZty3FxfZquPmlDx62AmgQgIIzwE22L6BKGDUi6QdTSnZj4DJ/fYBHhTExL///+poSwEuDCeDRFgJYviAAKp/k1AmtuZMiGAmYwb3mv0LQqF0wMS3cHPLWNb5fw8LMgzNm8OvWzGCe0vjlQBxMbQsAfyKA5+WVYL23ALoCiM8BNAnAy3e88JitiBeoIp7zqc0XOQubBFy70EbWU4W5rQ+i0wZ3COghe/2KQqs/FhbjUoHjwgZLVgAYQLUnAZoMlI22MwHQJPMdgCEIAF8F7k8ATaE3gATQltJQVA5NKxPbBJOH/o59ILjfXZD73nX4eEn/OrULbcNKBbC+9YXlNSNh7coPIB4m2wIslwgAnzaTuwBDEkDjQaBuAoiKXgOU3uTWiIDAcs1hubx7/8iAPgLezf525QfqBICOGirKzYXBTfHmLrcGw0KU0wC/Ds4EYXWhzfjdvycAfwegTgCPToYAKE0JUyBWojKe/nThrWRw4RiVCKBQeXhSeg/MI0y2BTACWKwggGILYMpvtwGHXQHYBZDl08mVyFbuL1eulm9KwG3z+id+0U2Ni2mAlLeFACyDKLYVZO5xlb0OHSQdOLg9e44NK19JC4//GgGUtwBLAnj4kYcLAnhvOwFQXSSnKrBeoBWUBkoiB6z46jC1h/Iw4Ea/KR7pIpCvhMZhxfIg7Ztx4IUr3sNEViAsPLwEoN0AhzXwcCWsAi0rlvfYYxlwRoF2m4FCV9s8NJLiGzCXMHELgG8zVAngORqPh3j++hCAPQrcSQA8Z4Iu2UzPAEg6u/VnMii2yuNQaNE7tM2Rk6Wzdsf2G1yadgKA7SqUsOTP0RbeHzZYcRDhV/fY5wAoVwecB4OWr5jcPgTw2F8eSwTwZ0cASyYCwGfCh1kB9DFoNwzSV8uhPxDOPffYI6y95pphow02CBuuv0HYaMMNGRtvtBHfacATh3Dja8EbbURxZMO/8cZiJ7+kRR7Jp3ExHfJKuRur27D+BuuHTadtGg4/4nAaU/mKMtpPzexo/yA0lR+wcdlhe08Ay1W2ACCAh+sEQHObCAA/B679FqDfIaAHx0XlF/DKAOk1j/g17UgYoINop7U1sx0RcFqJYwLI9jacwdxlx8mvGa2ASUEGDQNFtg5oP2jeLrhB50GgScXkYqLtGYBOAiBBAgHwo8CeAPjrwEIAu/UgAFzZYfBMwbe+9c14i25/vd0G++BDD2HBhUF7kaMsJ+ENFnS0Ey+9hKA//jjegy9Cby/CTHhSUYYb6nEoy16qwW4q3/AYjct9990XLrjg/PChD21D+BA/OwGTrWSydveBV/wUhvmEyVcASgCNFUCNAJ4qCCBfAXSeAaisRnntAJ8ROFlOMl5Xfsh+LXwomK46/U2EULg1T/FbAM1cEgJnkDRCFnkhY8EGJ4MNosTbIA4NlBXdUg/6ikntIgAIR3UFoFsAvPiTtwCOAPpsAdAOGPwQ6Pvf/z7je//3Pb6tBvv7P/h+2POze4Y111or3HjTjZwW81OW4/FWMugznhXAbU2MpyiskkDR7nZ4pfdu8dsYxjOAjAAWG3IF8GyxApCfA0Mu8Fr4LgIYJJcSL/LH8m22ymFN4Wthw6Gpk6LbBNgGTYf6mgSgyDoLNEhhQsAgkc2dt0HLmDO5x4HV104Az4WZeAhIr/6RAOhqbSsAuQ1IBLBgcwXQ3AK0Y5DBK61WXmWV8Nsbf8t+jH3MT34DxovniWyc8HNfKZGBFWYWAeOK+mBwdf7Wt77NbrQNwV1IZwal4hssLdVF5cHUDwELAnioiwDwTsBRtwBN+fIyC6DfcTsAN+UT2VZZnzhc+9BWQxZvsLCBWwABd57ChBTKQsuwERCZUgYNYTxwOqjRPypcXW0EAIHxtwAhKFUCWGnltAKgK0/cAuy2OwtmHwJghUFbFNwuA40zzOmnn87v37/5Zv3pLfWD85ObAU9PYyljXoU3ZdxA0J+sPQRr+6233hLWW3c9vsLCtB4KUhxgppkmV/5WAsBzAMsOuwWQl4KmV4IVBEDyIbdXCSQzOQE4eayRAaNDhn05iGc7hY0O6KmC3KnNpZ0gh4AlARCMFJqFmLu90L6QTqfBiWHlgIEUigEdClwPASRG/WECIIY3Aqg9AwBhgeDkBHB7gwDsEDASANWXhLYCSsOgPyAC88NYuCkSvnG38iorh9/+9rccZ8tp5IPBT3k/u9de4aPbfTQcNn06X7VQipEDbPTbk00buN2cuwP0pxUUb+3C+/VwWHjrrbexv0qKFG6AEuK5AvYjroqcABoPAi27bCIA+zHQQAKwFYASAMlCbQWQfhylckQYJIdRfi0dy3kh6xyeyhwPSR/jnbvYbvVzmlxfGwTAwgDbhVm4FJKH58uMfqh12sLivskN2khKb+D8UrYNBCZVngJ8hQig/hBQjQDwm/i2FUDzDKACijd0GcSjvTAnnnhCOPa449jNY6IFoT3rrrNuOOA73+F39eNXdHh+Hwb9HlRHzSBPBP0ZFkYAr77yKt9JuOEG3cLQHCCmAfwh87GP7RSuukp+ANQkCyi+2X4FUBCAOwSMvwWoEoA8BBQJgNI9T/PfXAEYAUBeTIGcvJpswS4gsisyLTIsNsdp/lhO4R8FprPJr0oPN7db/er2aStbAE2QkQKFsd8VUAzIsOCrenTrwJjya9hYig9g8NnWuqgPGIS//U1uAb5Kk41XcPUmgD/dHvDZr36HgC3gVPIqMDz+C2NhZtB2vlqQbQZpAEwqzIknnsjvxjeDe/Trr79++MvjT2hIIGF+NVxwwQXh5JNPodXEafzd/NNO+xnjZz8TnH76Gbxkvvbaa1UpTeGGBZSTHGReffU1JoDrrrue/ZEAKA2PD9wcI2aLzbcIF154Ebshi2W5HhgbmFYCmAMrgPRbgF4EMOAMoHMLYKjIapnW52/A6cPosDY6W9seCaDoR30LAEUhO2bycVMEVlIMghtAGdTKYA8DXw/6gwklAuAtABPAECsATwDlbcCeWwBb3p9w/PHh29/+NrvRThgWcnYlg3ZbOGAEcPLJJ2c/Kcaz9PhaDn7GDIOrFn5tt86664SdP/nJ8LGdPsaEwdhpp7CT4uMf/3j48Ec+wncguJ62/XorRDEBIwC8VBPPFFx73XXsN6VvMx/a5kPhoosuZvckCKD/CqA4AxiwBfB6kskYoLKaya+LkzwSb2UwyUf3qNB2Wdu8zW12im+IBFFZAcAtkESJAFKmjBRc3nFgg8TuOHAyaNlgDgtXLtrNE0pIK4DRCeB9kQAWHoIA/s7pDv7BD8JnPv0ZdkseilRz40030RX5Om4njD8rYDfhKWof3h2IX9OBDODGOYCZBx54MKy22mp8G7OvQROGh1dOCiDzKo3txhslAoACwdx0083h9DPOYDfmxsw2W28zIQLQuwDuDKD5KLCdAVRuA3oCwBaALhSYA8xZJvMslxVZg4IzESRwWk3v8zM4fRNSzphAe003Y/s9JE5WAA6s/ObnAixxnjk+EFQMzKjwA+QHcFx4lrWJ9ASAZV8fAsASG+/GaxLA8kwA9ecAAC/MiQCOmH542HOPPdmNtiEt2rLHHnsEPIGHd+ThoAv1Ii6WS+ltr412ffvbB4Rd6Up/6k9/GvsJcyetCDbccEMS8JlxLFKbWkD5GKinF/L8fguAuo0AbKtz9FFHhx13lG0L2mOGCeDi4QigeQjoCaD+c2AmAMwtE4CsAJCuvgKgVSK1OyMAUygCj6kpe6H0CXlak8VsVTpxJB1lcLsVZRyhQQAZ0GHOaGH1QsaFDUjrFZ/Di7BBwKRouQZTfjsDwGT3JoBHHskIYMkxCeBwulrvsbusGkxBjjvuuLDllluw0iIdDvW+uPfeHOcJADBlKw2EDObuu+8O6623HvcFBm3xBmPkxwZ+GCvft7kdpXJSIBkmgA2aBHDiCScSwQnpWX0w24ywBagRwGK8BZiDtgBYAcivAWtbgDYCwB0hIwAs/+02oBEAkMbMyRlsddtYeiTFlzSWzl+cJgIjqKydAPk5zJDiKoeAgtRpF94ghPEhA6RuGxAbPPWPvA0oBtj6hMmtEQAOhUYhAHwnID4KTPXmguuFOSeA3XXbACGD2Wuvvfh5ejO//8Pvw5ZbbUVtV+UkBfNlQeF4tUZ1on8SJmnxzr311lu/SgBt5GFtZjf7u2D9S0gE8CoRwAbhGtrGwBgB4NzDtkrWTpiRCMB+C5CtABYPcxgB0LK+SgBPGQHoFqBtBQACoHZnK4AoSzTe1A6TMbZLN4HTIIzypIsc5srgyovucaBt9ESQuRHv+zFoBRAZI880KcjApM77K30c4BFhSuGBScSETo4A3hcJYNgVwPTDmgTw85//PKy11lp8oIe6P/6JT4Svfu1rHAchqZVXAn2HwQpg/fU3oH7UVwA4z8DbfvAbhB8cfHC49Ta5Zw8TzxxcuU1Y/xJyAtgwXHPNtez3BLCrfkHJ2gkzyiFgOwHog0CeAJ6orQAcAdD8lysA/i6AHgKWBGByijmB3QWWQx+m8u7dk0BOUOQnneWLA8I9YhpxNwnAGEMR7ylm4b4gQpFnWPBAqd2JHgPuUR6yoB9tBFD7IVCdAOQ5AE8A+E5AnQC8IAswjjDTDzss5aG2IT3a993vfDesu+56Yb311+e9/dPUJlz50Z+kCFZ+Cakf5p577uXbgngJBowfF9TxgVVXDXvs+Vn+HcLnv/CFsNbaa4evfPWrfOUDAchhY7P9OfL6PQFswCuAJgHYwSfaYWYiBEBzgS0AVgDdBJCfAYAAMP/VLQC1u74CqMuq3cZuwMstK724uSyzpwJocwaEox+GgWcAYBFJGJW+iwhGAA8OD4r6eaAqA2mDaPYA+DoY6AuhSgAkLBkBkKBAcVoJYMHiDGAoAkgrgGzbwC4xDz/8SLj3vvvUZ2V1IZVvBHDfvfeF9WkLgN/qw2AMYPADpDXWWCN7BRcMFGWHHXcMe++zD/sxhr7cOvJ2RAJ4RQgAdzJgPAF8ukIA49wFWIEIAG9nFgJYLBEAKXb9OQC5+uN2abkFyFYAIxBABi+nnMeFmVv9vtxJgdvr28zupr722AKQXXR+LBRXZYEbBBs0Gyjv70Q+KVxmVlc7AeA2UPolIAhgwAqgIID2LYAXZEEkgOlEAPYqceRhl+Qzw1diUiqfX2DK0AT6ijj8RBd3E4wAYPAlnlXpyn/nnXeyPz3iKm3CeOD+fftTeXn9JVA/DBMAbT/6EsDWIxAAVgCLRQJYTg8BhQDkENARQNsK4NluAsBhcZ0ASMYGyKalFb/kMZlEXi6jSDs27OKctdWHNcOJAIoGUCFpuS8ZrPNpNTAhmNJqG2wwLMwGaFRkdekkDiYA2f8PJoAl6wRA7c4F1wuzCDjM4dMPTwSAPOwSw4pM7ec85I+gPzJfSXnaDF6HvcnGm7DAm/nRj34UdtllF3Zjf+jbhXGBATHtu+++7E59KZErpcEIAOO6AW0/ehPAVluHi6sEUKvDEQAt+VdYoUkAvVYASgBI128F4GSJ4OUsgsbL3Bg7C8vlXOQypo/lEcyt9khg/SU9VZ1N0LAinFcA8b6/An7uNK6arPSW2afLC5oM3OAMAgavFu5Qlp8TwKs02fI13UEEgL1k7y0AtYvk1AmtCbMAbYBhAvB52CUGbu+Hgd+W9zAoGyQWAYFVYgN+fNJJfDXHQzmmmIccfAjfWpSxyQkGAo7wM888M5IE8vm2C5IylkgEkK8AjFyOP+748KlPfZrdqMvMVlttFS6uPgdQq8MIYPtWAoi3AbseBdYtABNAcQZg44l2D0UAFfi07Fa5zcqiMO9n8KpB0J8QnE6ivayzFgbb+wUDtgA5/ApgUqsBPxgyOBIWB0zdQwODSraVjc43CeAV/hz24BXAQ/23AKZYmeAmga4SALWTotmg7TWDvDA33ngjP/231dZbhWn4MjC+7uuwxZabh0023SSsvsbq4cKL5Pl63M+Gwe8HshUA/xNjT+sdc8zR/NFSmNSX1P4uZASA5wCKFcDxxx0XPrXLp9jt+7nlFltWCKCtjpIAVhACcGcA6cMg9ScBIwHoCuCFtucAMgLI5d1kjO0uaFrOE4E4VxZkVd1TAhrTeCF3eou2NAigXA2U4WlV0EzjCx8KOhgyEFBccvOg2SCq7QClKcNq8PXkBIAtAK0AaOLbCACvtnrssUdpBVAjAGwBKrcBqa0kp05ozS1KNIgAagb9gMEHPHDg9bWvfy1ccOGFfMp+/Q3Xh+uvvz5ce9215L+Gw2644YbwxJOy94dSWn6cC3zgA6vyU4IwfAaAcaF5g3mNBB/v+Dv33HPZ//e/oy9J+QbBCABPWNZXAHUCwI+BLpkUAcw+iADcbwFazgAgG5ARtLuTAArEcMhrIbtZXgrzfo/+V/sWFCsVXPGTvjb1s0kA1lEtqI0QMpSVDom80xgcHUwbxBGRyiToJCYCkC0AJr51BUDCUxIA/xzYEwApZPcWwGAEIGcARxx+RLwnbgSAsb7jzjvZNoN+wOBLPDjwss9n9zFWLmDlHHnEkWGdddcNd919N/vNoO/2YyGMkRBH2YdupBVAHwJIfdxi880rBFAnAetHgwBsCzCIAFj58xVA4zkAko3mFmAwAdRgFyrOhwubK6MGix+ZCKLeUnvRZrSdFd9D0qCO5hYABRg4TDIJEaTMkrbwjw03cOQ390hQEonQSfQEgA9BdhEA9o9MAA91rACUAD6zqypzlQBMoBMBHEkEsJsSANoFg1t3a66xZsBHSGDQbhiEr7TySuHmW25hP/qQky76KsJmiA/zKGAwLjD4BNjqq68ePrvXZ8Phhx/O3wtca+21ws6f3JnHABmGVX76z3XCRALQnwNnBPCpJgFsvhkI4BJ2j0oAy2ZnAEYA+cdBMwLQ5wB4C1B7EGhCBMAXMQMTgMgllK8howVGI4GaTrqwoh9CAF6YyG2dZTsTtFrhk4cNGLttEMuBbQFvJ+CuDC76YwSAScaEGwGUvwMwAsCvAI0A/sgEsFJYcMEFRySAdAYAArAVgIXdecedYc3V1wyPPPwI+21fjpP5T39GTs8RlsoTmIGzDTCwTUn/+Kc/hoMPOSR8ce8vhgO+c0C4Um/9wYjyU3r6UwPioagAxlXCPQHoIWCFAD4dDwG7CEDK83UaMMcwO8a7AEYAyzoCsLsAoxNAbQvgV8OZ3EHWCj8rr/olvebTuCoBaJqJgtoteov2N/W3ugJAZ+tX91rYZGBsxyxpg8aDJYMYB9bcA1AOpk3iOAQgK4CcALAnlzOALgJIQBtg/BbAFB0P54AAUCeMhe+335fD9w46SPJTX6DJUDUAfTXBhNsMx3M7UlrzQzBrBoqNMso2J0ia0sTVBhKQSQTQ3ALUCWCzoc8AqgSwqBAAfg6Mvf0gAsCc1wgAZyGQkfohoCl0Xe5KcFqVW8mfyjBwWoRNhAC8jsJNYKJWd5ZWCcAzG0OZXeJQgM/YLGSS8AMVCUAHsC8sr5UDDEMAEJY2AlhxRSWAJYgAaNmZCGDQGQCQrva8BdA8kQDuNAKQLYClxX35gw76HrvRF9Y2MiizNBaGv3BGFH60U67gyfbxebul7ab8z9J26ZSf/IS/Vnz1b37DYUhgdYMA8DuEvmcAoxBAcwvQRgCPDTwDEAKQLwPHLcBrr3G7mwRgqMseo4wzP+WLF7pYToFRScDpbEKhu2UfqC4hgCyRJUBmIYfm0iH5a8uK4eGUXgfNu7sIIEtXhHvYJAoB4H2AiQDw3HgkAFz9W1YAf/zjuASQbwGMACzs7rvurhLAfvvtFw787kHsRl+gZigLBif7B9LqAO8GvOPOOzhM6mKdHBHNdku/3gj33HMPfwlop4/vFPb78n58dnDQ/wk5YdxhEgHkW4Djjjt2CAKot8PqEAJYrEoAOAMwAsAcDk8A+lzFCAQApWJ5dfExPdm2FahiEsrP7rytqf2Eoh/5FsArf0QZhgItbLLItgHRjUFM8TaoFt5GDrL/SmXbIAgBlK8ETwTAy38CHh/1BIBv7rUTwELDbwGmNw8B7777nuwQ0MK/TFuA73znu+y2MYHBp8rWWHPN8LnPf56/KrTGmmuE3+gVObVjFDTbbduG3Xbfnb9mZGbGQzPC6musEW74rXzIBKaVAI4FAdhDRiUBlIeAzTYA1ncjALyRCVuxkgBazwAItgVoJQC9DVi+DyBTtKrcFfKpSm95olvjxZ3iJwavx+SWtlsfRIcBtKd5CJj5U+J29EnTDq/o5he3MaePc4PbgKTLoPkBm0QmAJrgnADSy0CYAEhYIDSJAGbwD3QyAsAZABPAckwAn7FbelHx6gKMNsDgjUBGALYFwC/4qgTw5f2rBIAHgg488EB2w5x08klhO1IMxEt9XqmHQd5mW/rjPYPTpk3jW5FoB+6iwHzuc58LxxzzQ3YjfzwDsC2APoiUEQDlN9MkgLx+D+t7IgD5IVB+CNhFALICeLrrEJDkQ14J1rYCIHk0GVNEfyGjNl+Ij3ljOQKW+SJsbECHrd3OLtM1DwGrQEbL3CykVjDQOFvoAAaO3arIHObsNlj65FdbyzXYJMYXgg5LAI883FgB4NbTOASwu50BkGLB3IMVgDsEtLT43JYnAJQDg7finH/++eyG+fPtt/NnuezJPygukvaHpc/bHEHlffjDHw7HHX88lw+DcDyB+EttB3lZiTwB4GoKc9wPfxh2+aQQAPphZjwCcCuACgE0tgB+BZARQH4GgDZD+esEIPBy11T8FM7Kz3JK4LxN+ZwIATQu5AP0lqBnAEUE+yWzdDxl7tzzNwapI62D73xjMIuBBeLgwu3CM7gyAZvEkQng4YIAaAUgBDDcFsCu9iCAPYpDwHvvpRUAbgPSdgMG7YUptwAAzBFHHBE232LzMGPGDG4v7uPjN/0w0g7UKUrZD832CqQ8mCuuuILvhBx00EHhzLPO4rMAEBHG01YKUCJ/CGgEcCwTwCfZbX2AGf0QsL4FiC8F7foxUOMMwN8G7H4SUC5WFZkzaBoPv9SvKbuU2QwfHdpebjfB6bSESzvqK4CYWPzllXwyB38F4gBhEKlxNJDwl4ObwppxHn7AAZ5Emky86XVYAsA+NyOABfwKwAhguENAfiloQQA40MMWYBABWFkQ1q989Sv88pC111mbn0V45tlnqP+iKJKuVHDvL5Ha2YSsKGBuuOF6fi7hQ9tuGw763vf4EBXGSKIPAUD4zEyEAJZxBNDzfQCY80gALw27AjA5a8oeE0B0K8hteb07hhX+odFoH8I0nOMMeZoKASAD2dppVn7yi9LnBUySCMoBylALa0Mx2Ab0BZOJicUtHvkqUPOjIL0IIDsElC3A8IeANQK4P6yx+hp84AhjafcvzgBKg6UuDhDN1OodD0YQiQRKI6QjceVtQCMA2QJMhgDwTYQmASw6mAB4+f8Uz/VAAuBDQNUDhpeputzlgGKrm2zk824PpC3DJgK0O+puU4dbzwBSh8uMeQEThw4a3HEgq4PbgbJMEBj1p0EANOmeALAvbBLAI44A/hhWXGGlsEC2AtAzgCEJ4Mjp04kA9BBQzwCwAgABlCuAkgBMBa1MM3BCCSW8vQ39IOXlbgH6aP2UeZI0/klAEEB8KWgvAhjuDGD77bYPizIByCHgMsssExZ1BID3/dcJQM4AQABtW4D6j4GSPImMlTJX2OyWtCbT7NYyPDhdzN+M7wu0sxEew0yH8zQDCCCxR154XsikYWw4aJnfBl7+w3Zlov1dKwAsnSEYEJLHH08EAGXEHtsIAL8/X2CBBcISBQF0rwCSH+2AOfKwCgHgtwADCIAVhF3JQPHQX6nHw7dhGJTl9ENGAOutn14K6glg553ZjTkxswU/CjzkCgAEQEv+BgHMnhNA80nAFgJ4yQjgVZKNQbcBTbaacsfuqMwpPOVDuPgRL+FTALQ5+kWHc0icEIBjN1n+izt2nOO8nQqYKHgAxbYwG1weLBvgEjrQmb8YXPTDE8ArRAD2QlAmAP0hEH5GawSAp8jGJwBTEPGjHTAggM9WVgByBlDeBegmABiEpboMSXGGQ62sLkg+TwB4JXmNAD6pBOBXAE0CKNuTgPmF2X677boJgOa06zmA5gogbQHqK4BS5guZK5CRgZNHu9rnZU0WfNG29sI2VHRXVwB5IHfYFYJJ4ScC1T/lUALggcNgqh0H1NytKMpD+6ntzRVAhQCeoC0ACQwTwGNdBLAEnzwzAbyXCKD1NmCuJGgHDLYAJQHcf9/9YS1+DqCDAKg/omZyxUV/4U/1eiTFGR5lWV2QPOkM4BX+cnFtC/DJT3yC3ZgXM6MTwKI5ASyyaJh99tmzM4DhCUAeA0abGysAJ1OtcmjhLo2lF9vKSCSQwsaBtQ82IbYXbrLhZ1h6QWMLwJ2lTNxhBROA+WNa7675x0dzkDU8C6vADa4B7c9WACSkL7UQAJ4CrBHAH/7QTgDtzwHkSoJ2wBzFBKC/8CsJoFwB7PflcMAB32E3+tJqYl15ncOjLGcQJJ8ngLXXXqdBAMe3EQC/D2C4M4DtSgJY2hFA523ARADZIWCxAqg+CuyUx2TNrvQSXsghyyvZDl7xpwRoJ9nSXrgdsjAhnpYzgJQ4koFmEneyy/BJwgaSb7VgANnuSwBuoNEPQrYCAAHYFsC9CwCCAoH5S0EAeC/gJAjATvyZAOwnvtQuGBAAzgAaK4CCAFAOzP3338/fEsQ79fBtQBisCqQ+34ZhYfn7IOWLBPDqq2HttdZubAFaCWCoFYDUsd1HhQCWAwHQVowJgPwgAP9bALwcNSeA+m1AyIIRAJ8B4NuAXSuAQt4afktnsqhkkJXh3EOjuJInaDvRXm6zovRr+kQAWmDsKNnJLeHit8ypkInDsWo2qObuAV+etb2xAlAC8C8DMQIoVwCJAFbICeB9y4X3MgGIMk81ASAM5eBWFb4IvNtuu/KSl98BqN/YR5/LeoeD5e2DlM+UE20DAfzmmmvYbwRwQgsBNG8D+rbkwNzCRAIgAsY8LL300mGRRRYJs89WEEDLCqD9OYCOQ0AnU4KK7BVhPv1klvpdkDamtpINvY5kgXABX0gJlRUAMkkBsSAjB87s0kX3FIAHUNzDKj/gy7IJHIYAsHRsEsAfwgrLKwEsTgSwzLK0/ByRAHAIWBDAA/c/QFuAOgF8RwnA0uJ3A8vS0hdthdlzzz3iZ8REiXLl7A9rb1+kvAMJ4FgQwMfZjXkxMyoBLEJL/jYCkC1A9yFg+wrgVVkB0Fi3EoDJGWyTT7XjASDcFGZX/nxV4MqaMLIH99Bubrui6AcTQJaBEmESuMMKHgDNLAORF8LgcMnfiOuJ2sCABGQwza+D3UBKB9uXYRM4FgHQfvL3RAB48GSB+YUAlhmLAA5rEsADHQRgzwFQGMpBH/BcPr4feBitJvDKsF9fdaWkoT6X9dZhacZBKi8RwGtCAL8RAsB+GubEiRCA1NFKAHoI2Ppz4BYC8A8CYWxBAPIgUPsKwOQsymCp6BomaMrlVIPbjIs32wrTT+1PyxkAMisxUMLUeVdAA23hwyGxJNmszDqQ0e6HrFwltEQA8krwYQkAK4AmAbwvJwCqm+TUCW2uKEYARzIByNtxjAAeNAKgOmHQZpiMAKg/KAcGbcMPhXb82I7hvF/+ksOgILV6LQzxICm+q8PjIy8EAeCW/JZ3EHzZ6eqMX9PJGUC+AmAC+HidAPLXglsb8vIBI4CPfvSjOQEstVSVALqeA6gfAqa7AJgXTwAyRgqSR8y1jJmTO+dmUFqzkTbmHxsD9I3aG/UVbu1DyifbACEA3zH2W4dTxtxvaa0wj1rYaGClLwZYBrMS5qHxVo61PRHAKCuAh3QFsHyFAN47PAEceljY89MVAlh99SoBfPe7iQDaDFXt6lNQuClOV15vML/5YWIXrJ99CODYsHMbAQz5ZaCMAGgelgIBLCxbgJwAijcCta0Axvw1ICs3y6sPd2khk408FpfStaOnXnE7DSL7UfljnKRNBKCQTlpCXCHU1sxpEMSd/ONDBkgHRQfOD6AwbjmAyZ3ByjGQUKGtiQDcCuD5/I3AdQJ4UAjg94kAFjcCWNYIYLi7AEccemiDALAFWPODH6QtQE4AeCfgd78rv/vHVZuKY2MKAWWN9XK42grEmXnhxRdZMY/54THh61/7Gr9t6Lvf/U44+eST+Xf+KM8M50NZnWgqp20ByrsAPzoOBLATuzEvZkY5AxACWIS3YHgGYKl4BjCbew6gtgJo+S1ARgDydaX8DMDJkwJtKWXSlDxLx2EpneXx8T59f1C7nEJHZHrpddeQ0ja2ANJZlwEd95n9QHCc8xeFjwM/KDZYNriDIGndJGh/qgTwgiOAJwesAH7/e77iJAJYRghgweFXAO0EsFqVAA6sEIAZ+EvAwMZ4wKAf3z7g22HtddZhfGynj4V99tmHPxX22c9+Nmy77bZ8J2HDjTYKJ5x4YmwT8sdy6U8duXIKAazVWAH8iFcA4xIAVUgmEYA8BFSuAFoJQG8DNg4B3RbA7gJgDBIBVGSb+ssXLtgeCKN4uPkiFd2FXE4FYjuhq3Crbe5CR5tnADQB3FkCd1wLsDApSNJW2acaNh4ag+v9BWRflg+0TWAiAL8FSAQAAakRwINYATz8cPgdCICuOPMzASxeJwCql+TUCW2uJEYAhxMB7NGTAGQLoATACsLOzCDIAGP1wZx66qlh+RVXDB8hpbno4ov4CbiawbMPSLsBkcCm0zaLHyHBGMby6U8Tppx1AvCHgP0JIJXrYXVsV64AIgHMFk4dgQDKB4GYAHocAjYuShYH+SM/5CGmVX+2suW0ub8/fJvK9pEfbeZ2C6QPgKRBvc0VgCYUmPJQnGaOA4FwzkN+hCGNK3ySyAYYqIUpjHF9frT5b3+XycTEYo+XtgB6BvC0EAA+p10ngIeaBLD0MgG/B1iQCMC+ejsMAexZ3gW4//7WFcB3/W8BUB65M/gw8mAsYL5Gy/xlll02nH3OOew3g3gZF5lHbzBGBx98CD9kc/Y58pkwjGNWVwZTTsSCAHAbEAQgW4A+BNA8BKzD+oUnAWsEMBsIgEisnQAG3AZ8lbYARgA0L4MIgFcBsFmxIXuq8LA5nNKaPXFg7qxdpo/ihi1xBGu/IeaprgCss5ZJFEj8SIOK1K92TAu3JwIO03JHhQ4eX/l1cG3QPeK+CvD5CWgbYASA974LAaSvAj2tK4AqATwoZwBMALQFmH/++ZkAlh6TANJvARIBrLHaqo3bgLxPbyOAWL6CwtBnmG988xv8LcC777mX/Rgf5Ecb0BZv4Jc5TIr5q0sv5WcNzr/gAvZjbLO6GF45pUx7DqDcAuA5gIkRwEe3CwsXW4CFawTQeBJwMAHYCqD5HEAuz17JWQ4ho87PMunSe0RZHhuDdIzioZNof+xDyhMJwNiDO6oQtyoQZUIaBsLh13DJL/ZkoIMI8MBKGLt5gNNgxzA7ZKkMLLeT0CSA9GXgp90KAEvhRAAPRwKQM4DlhQAWAwEszbeg8IIQ++BFbwI4JBEABA2mlQD2rRBADRQPgYQ5/fTTWTHuve8+9v/9b3+n8UGKZNBfPE4MhTBj7bS6L7nkV/z48+23/5n9XSQwkAB+CALocxfAxk3K9cAcw2ALAIXPzwAWZgLIzgB6EkDztwCDvgsgyORQ5ZLDi4O+EjU5HRUYs1p4VHjVYa/4huohoCl/jqRIVjC7Y15z18L6IWNLZU8bXPg5jQ12hAym+SV/PrjWbiMALPFaCYCVXwmAFBEvA81XAAUBLKMEoPv5UQgA7YJJBJBvAfb90r7hwE4CkHrQf7jRhxVWXIGu3PKizr9RHlNOpMGns7bcamt+pfgaa6zBr/X+KC2p8cVhMyjH6j/ggAPCR+mKi7G0uppoEoA9CJQI4Jj25wD0U+aJAOpA+2F4BdBBAHIbsP3z4O0rgJ7PATC83Knb2UgjcS6PyvFUAm2thXG4xpmuMQGkvYNltg4XQBrnl+W+QcOGVPpBsAG2gUy3U/I4Q6n8gLVXCAA/BaYVAE023gKTCEDeBoR3AdgKAFdi/AqwQQDzzR/wVZpIAAt0EQCQ/IMIYPVVPxAJwNLu+6UvxecAmgSQ6kBfYaCw222/HbsxZ1BMxM98biYr+irv/0A49rjj+LkGrABuuukm/mDoqqutFr6w9xe5Pf94Q8YTZT/3/HNhLVLoy664IpaJ8nLkBLDO2us0HgU+/pgWAphWIwDftwS0CaZGAAuDAN6TEwDmcagtgK4A0ObOR4EBlrdCDkEAFRmcelj7oJeFHsJvYUU/cgKgwbeOWqdLSGGSnv2Wd6KwASRbr/AYbBtkiU9+j2ZZ2nadTF4BgABoousEIMrPBPBYQQC/KwhgqaVJ+JYNeEXYSCuA3WoEkFYAlvZL+3wp3QaMCpLDlA9CjKv6ZZddxuFGABDmD3/kI2GbbbflOx41gy3PtM02D/vutx/7bTxh8BZge9YB4VR0AU8ArwkBFCsAJoDao8BMAMOdAeA2IBS+jQBkC1BfAeBZgMYWIBKArAD6fhkorkzhd+CwUh7Jb3FTA7TRtRN6am03+HiCEIAqtME6bBm934ezciEPu/MyxoYNbBxEHXAbYAwmA2nNLeGMWJa2WSfT3gjsVwAQBE8Ajz+uBNC2AqAtAAhgqYwA2g4BgeQ3pZ5+yCEtBNBcAQgB+BWAL1eAvsLgg5xrrLEmCzSMvWvg2OOODauvvgYLOQzC0VbB67ENeBnKqkRCOACEQTjquu222/g1XzOfkzcA154ULAng6oIAjmMCqPwasEoAKNP6mYA5hmkQwJK6BXjPe8JPun4MRMqPFUDXz4GZAOKPgbzMm0ypzJntYPHsh61+DtOxnlqoLqK9FqZuf2hvcUoA6KAEwIZSW6dLxAKiXytBHlfwOEgDKbYfWPYjHGEYZEWTMBKs7UwAtgLoIIC2LYA/BMQbaccigIOJAKpbgGFWAEn5EA5z3HHHhx133JHd0hZaBZAQr7feeuEXv/gFh/+Vyk15rSxqm7bjiCMODzvtJFdqjCcMxmqDDTYIt91qzwY0VwFNApDPlBkBHHvM0eGTO7cQwMDnAMRv7TECwF0K3I3xBND9c+ABZwBYAVD7ZRugKwAjgShTkLFc6aOb4fycVvLNGgLwEH1knab2MxEAGg9yaqwAJGFSmhIcZ4oOv+XR/Ox37pHAV3VpIPyNQdbBj2mj7cId0D4wuRCArgD4ELCFAEhoSgKYMcMRAG8BjACW4Z8HD3sbcHwCsHIFRgDf+ta3wt57783u+Kah+x+gq//q3B/kfZ0UNeVNbowV/Ljab0jKjmckYCiKw7fcYotwUbZXtzIERgBQILwS7OqrCwI4uoMARlgBLAQCWBYEsHRYkghAtgAlAaTfAuCbj5jjgQSgK4DyQSCvJ4DJI4PDvD+F+TyTQ65zUdnJNj1lP9yIZxvhamu+yhYgKTvD+zmjuKUCLQj+mL8dQxGDKba6Mag8wDygblA5LpFEDWgvJlIIQD8M+krHCqBKADMiAcxXIYBPDXkbsA8BoN0wIID8NqAvV4CxhcGvA7/+9W+wG1cwmFtvvY1f0fV8tnwvyqBwtB0GXyjCiuER6j8M0sN8aJsPhV+cJauIQQSwToUAfkgrgNpbgUd5DgB3JXgFwASQVgDvUQKIW4DHyh8DDV4BlA8CYc5Y5p1MAbYShaKz/KkcGsr0k0WLzpVtVT+HGVxetwWQQHN3QokgFghogZ3IiGYwZGBloGVQKRw2D7xPowPOg94ceLS5fBIQk91FALhyGAE80CCA+TICwJOBgwlAwqaMACgcBm8O2nuffdhtdWEFsNpqq1NfHuG8GKesfZQGwFgh7NZbbyXCWDt+8QcG4Zv5+/WcNtUPpC2A3AW46uqr2e8J4JMTJIDGCmChPgTQ8hxAcQaANne/EUjkjGUvyqdDRQ4nD9cm1i3zw9Y2a9ul/eK3eKSNBBCVk2xMgmUqkSpyYZxPwqQB/SHLpBawwsONAZXBFrcMckpHbkvrwwlpBWMEIFuAQSsACE4igAcaBIBXUuPkGY8D9yMA8ZtSHtZGAHgO4JHRCeDHJ50Utttue3bblR7lrLvueuGnPz2Nw7E18HnpP8Paceihh4Ydtt+B3RhnGIzTuuusw3dCYKSfeTsaBHBVkwBaVwBD3gX4yEdoC0AKby8DwbcasSIAAeCXjdgCzCgIwLYA3XcBOm4DsuwrqB2s6JC36DYZlXgjCWByhEBt8Xrm2xT9hU7G9is4HjAC4ER5IanTYrOb0rFCaQGpUFcZw5U1AfDgetsTgA56O5FIOzGRf2NWVwKorAAgIMMSAJafoxBA6wqgRgBf2jf/LkBWrgD1wuAny2usuRb1R271WRk/+cmp4f3v/0B4duZM9ud3Af4R24WzjhVXWDFccom8pRdtQ3033nQjLevX5p8Tw0DZrU+GXgTQ8nHQ4QngI/w9howAsAJ492gEUJ4BVAmglC3IHcthkkdWdL5oCVhWszBJNzWwNibdjG03u9DRtALQAEtkGdtgadmt/qmAKHwZJoPKsIHHZCDeDT5D22gEgPu7bQTwJF4J3iCAh9oJgJadRgC77PIpFkxMMMmpE1pTUvF3EQAeyqkRAB4FtncCioIkxS+BPJtsumm82mMMTHHQxmnTNuN+1cxdd90V1lxzzbDPl77EfuSxs4Wvf/1r/LNhmGYfBTkBrEsEUJ4BHDMGAUh9aBNMOwG8uxcBNL4O7FYAaD8TAIEJwO4CUNsAkS3InSm3yKHIoIYxNG0pkwRJ0wzvA9Y5KDHbGq5hHMdtlThpt6Y1lASQQTOkpXMFXEBeUFoFOHuCwOB6tyi/kgEPPsWZ7fJZm4UA/sbsjgmu3QaEkJQEgF8BGgHYj4GMALDvBAHMN58jAGqDCWsS3OQfTACr8Q+QYNBuGPwasA8BmLLiUd8NNtyIr2AmmKgb30HAz5ZXWHHF8N0DD+Q9+s033xwuvezSsP/++4dlll2GHwJCvW+QMmNskQ/jsiLlufHGG7n8PgSAQ8fmCmAcAhCgLzAf/nCNABbqJgCCJ4BsC0CywARAbW87A0jKLzBFtzEGJK60pwKif7J6T/pmfm4v4tVtYaXevsOW+xygifogVh4rQX7fMHVrWqtwZGSKrQNObmNSmQCfRmFtBgEQyk+DD9oCMAE8kAgAPz/NCWBp8s8/mRUAvg682gebKwBSyu98ZzABYM8P4IUnG220cTjksEM1T/7rP/w0eLvttw9rrbUWPzW47rrrhE99+lP87X8zUGarH6Sxyy67sLtJcAmRAGgZ3UoAVg7NjRk5XBzutwBCAMUZwCAC0BWAPQhUXQG4XwPyRaODAIAkd0IGHFakmTJou0znTN/QztRmTWM25zWbCACKKgnAHii0mdkDmRthZnN+8TO0kskACp8YlZWfBh/EYGTA4QhTN0PbZpNpK4AqAZCQNAiAhCgSwO+UAOYFASw6PgEU7wMwAmisALAFqBEA+aNb/VBQmJtvuolXJ5f86lfst7Hx5iUag2eeeZbG4zUNERJBH2w18cMf/jAs+75luU1of7N/Cc0tQH8CyJ8vaJZtsD4YAeBdB3gke9gzAHwJum0L0HYGIBc1RXGxEbnzF6FCDkeG16PkThdfCY9Xe01jbTZdzP1WXiQALZQTkZtgGXpBG8OFkj9vtEdbuEPtKl4DBpxgCu9XAyXQRiYAmtRBBJD9FPjRR6oEMK8nABK+fgQgYUYAhxMBlC8EwRagRgD+uwBGADCwGFY+h0obYM4888yw9DLLxN/zw2A8UF9JBpADCDzizRx77LF8u/Pa6+TFHn/XvtndhRKNLUDjOYC+BGB9srKT3xMA3sZsvwPAh1pkBaAEMHPmwC1ARgC2BXBnAM0HgXL5hbz5bYCPE9TlcTikOpNyi0yzYrPfpdF2Gji/91uYlvUOKSxV6DN3ggqAjYIsjN1asFRk5Zrbh00GcSXg7AzaNkwkJnWYFQAehGklgEVAAEuOTgCH+HcCShivAD5YIQB8HPQAvQtAfaKiooE7lm9+AvoOc845Z4f3Lb9c+PJX9mfBLw3ylQZEhC3BCisu75TfFNP61USTAGpnAEIAmDczTAD6VaM6ATTr+PC2Hy4IwLYAHQRgKwB+GKidACAjfZ4ENDAJFLJnK9LJQ/TM3Kx32j7WOUcOhkYaVwYTAByIFDKQhMPACmdSiI2bIKqrAmPf5M/jBdbGgQRAAsErACh/jxUAXkk9DgEc0UIAq7etAPQ2IPoEg7Ksj1wPwhxgbDtw++23hw9tu21Y5f3vD1//xtfDtddey1dAawvGBA8J4dNin/v858PKq6wcPrPrrq4dqU9tV3+gQQDFFuBY2k7YIWBGANOGIQDpE15iWl8B9LgLQOi8C2AEQDKDuTEZAgnamLO8sVyq3DEBGMxvaSeFpLjeLW1zboJXfg8hAMtfHgJyAamQVlBm2CiEbXU3YQ2fDDyr2tLLx1ehbR5EADgYahAAKYARwIMZAcw7AgGIPycAyeMJ4IOVuwBtHwbxxkJg+1i0xwx+4QfFXmvttcIaa64RNtxwg7D5FpuHjTbakP3rb7B+2He/fcONN92kOWr9aUd5BnDllVexPycAXQGoIsOMRgDlCmAJvivABHDSIALACuApnve0AsgJAG0GshVAKVsRKotQ+r5b2JHgdUp0TNolNsJjW1uQyhA7OwMQZelRiNmoOCI1ysKlosnBCAC2Xf2ry36FtEHa2psASFggNA0CeFAIAC8FjQRAy048DjzSCiB7LbgSAN8GpBUAXY1h0G6Y/WkL4D8OCgPBPeOMM8IFtL9H32C4PtgKGNgQTPPD4GGeP/3pT3zqf+FFF/Kv9vAMgCkqjAl06scgQKmlFiaAdYYjAPuwaZ0Akt/yNbcAQgDvJgI46aSTum8DVrcAdheg+T4AWQVAnkoZc2dQbOeyOP42oKJDrHeioxYvbomDW3Ra4tmv4Lwabnl5BSCrAMnUF43CUA4awW6EOX90TwYY7D7Lf4a2t40AIACNFUCVAB5sEAD2nUwA845CAP7LQDkB4OlDGLQbBgTw7W8fwG70HW3deuutaZm9dvjAqh/gZTvKjXVSugboD4+HKlCbkbG0PgDWj0GgtuEPGdxVWG/d9cKV5Rbg2DoB4DmAC/V1ZHUCkPJhG8ls+yFsAd7LdzpwGDuIAB5/gkjgyQ4CyLYA9S8DoW25fJWHfzJ2eZpJwfQItkdSdtNHWxFwOGyLM3A+wG0BbCUwLBEAUrk2jv2+oWUHRkS5tMoGvoLYDukPT+YUEQDOBCZBAPfdd1/44KqVLYAjABj82GXd9dbjicV2ZaWVVw633nYbx+XKW4DiAb7VR+OHU30eI3JDkLm9mkbyWB/Kvnh3QkYA663fOAM4/tjjwid31jMAqs8MPnNeJwDA6pI2WL4qAdCK4N3vaiOA4gyA5hu3QBsrAL4L0LIFIET5wthRW2Bn29FJbwFMr9jv9I3jvE1xmse3NwJ5yJa8BhBAlmE45UeBpZ8bxJBKZBluYRNGHOySiQ2pbW0rgOefrxPAo8MQwHx9CED8XVsA/AwXBPBwSQD7fTkjgPPO+2VYmZQez+3j6bzlV1gh3HX33RyX6q+A4qthNdCf1IfUFxN0uRq6uihPGwGAeGGOP65OAFtsvgVvZWCGIYAFawRgK4CZAw4BsQLICMDdBrQtwCACyGDhUw1ti+pX1LEBusu6ae6Y150ByISau1lADdwg2FlYKpzLU7uJlGYYtO6riAyybQH3J7UrXwG8MnAF4Ang/gfuVwL4XYUAlhpqBYC2wIAA0oNAEnYfEUDbXQAjAPQNJ9T77vulsCqRBU728Z0/GChHs84eoLwZEMbwZaXltzd8V4BsBhKSiQSgtwEx9jDHH3d8+KTdBWgQwPArgEQAS/LHWo0A+BCwIADeAtD8ZisA3QI8XxIAXSCqKwCTLUV5EJ1kc3KEgHrzMNEva5PpH4c7f2yzwsJiWgYIIFP+ZsZhEQuHG+VymO/A5AGhaFt6WbvaVgCtBPDooz0IYIlEALq37UsA/FLQkgBoC7DGB1dvEAB+C+AJwMwdd9xBbXuA3c26Jgu7ul955ZVhjz324O8K/uGPf+Awi0MbYEAAeH9gIgBZAZxwPAigeQaw5RZbDiCAhEgA2xIBLOgIwK0A5DmA+iGgrQK6twDp9wBMADQ/Ikc1Gasp++QIgME6ajrl9Mz0S8P6IObXvugZwBjKTw0xNxpltgCVoDJzj46uE1U8fpkfCiZY2zwBYJL7EsCMh2bw4ZwRQLoNuIgQAC0/QQAm2IMIwLYAtdeC33dvfwJAWWZwZc7r8UjKk1BL1w70Cebcc8/lZ+/xivJvfutb/D2Bm2++heOwH0bZMFAgrADsjUDWvzYC2GrLrcKFQxIA7gJUCeBdHc8BELIVgBJAcwUgzwEYATAJqByZXJm88cWH3SZ/dTkcBVJfgSwM6ZL+lajFGWGYTsbfAkhkPyKwgsWmRji3EYJVgHDrkKWL/lHAV/ryLkA7rM2eAPqtAGwLQARAKwC8FQgfywQBzDMPEcDCjgDmcQTAiuAFNxdkIwB+K3ArAeRfBiq3AFQcA8IHpDpqSMqTo5a2CV7iE9CWjTfeiB8vNnPYYdPDpz4lWx9pB2UgIwSwXgsBNLcAIIBhVwCJAOR3AJgLHAoyARRbANza5UPAFgJonAGAAEhWEgGIDLGsF/I1paA6YaNu0zlzI47d5nfxXeD0gOqhHgKiMkEtUx9YQ9PhRN6JySBnWQhDjKusAnz7hicAtwWgFQATwG0ggPclAqB9Jw6gMgKgNuSCmwuzJ4A9SwLAFmD1NeK7+NBuGLznzwgAhM1lkTuCy64hV54EH+/T+3CJSwd78pIPvDDUzJlnnRm23mZrdls+GNkCrJe2ADTuMMe3EMCWIxAAHgTKCIDmAgTwrioB/KVCAAMOAf0KIMoRyRXgZKwNfS9Q/eH1KMm1hKvfh6tdwtIL4hYAGUZXfoNVyoUXA2XhYudx/WGKX4urQNsD1AngBRYAHAa1E4BsASIBLAsCmCfgqzSLRwKYt4UAvCBLWCQA/jFQcwWwJhEA6oZBu2GwAjjg2y2/BgTMnyFXHEEtnUc9HVY1MN/85jfDpptuyuNwww038BbgxB/9iOOk35SYDMZ4/fXXj88BxDOAE06Ih6X5CmBr2gLUHgQCfPvbCQAfaxUCeJfeBZjJd0mYAGhO8cWnBgHQvGP+G1sAJgD/k+AkRw0Z6yuLI8HqS/WmdqitsPAuWFrRT9hxBWCJRicBbpAWHMO54VIRg9Ope5YgtSUjgOIMAFcCEAB/GHQAAeAllDkBLMkrgiYB1JAOAacfcmjYozgEvBdbgDYC6PlGIEGuNBImEBIV9CsLyirl4LVZ++27Lyv+B1dfPfzf979P5YCQrQ76QwYEu8H6G4SrrpInAY3gcBtw58ptwK222nqMQ8AuApihKwDaAug5QCKA7i0AZMUIwGQIaMrYpK/0CaZP7Eb9Ks+mwKlNyT0IXJ6Byk13ARS1TJ2wRqk/b5iUJ51Bp8Tt0X6bcBJIbfEEgEl++eWX0grgmWd6EsBtfAgmBLAwC10iABHsdAZQgyOAQw8Nu+u3BCIB3HMvnwHg/AHG0uIQcGwCoLy123gc1xNmoFz2xmAEczzbkujll1/h7wJcc438ktAIAG8q2nPPPdntCQBbgPPPnwoCKLcATxZ3AZ7JVgB4P4IQwKsBXweuEQBQl7UxkZVburVutTkMtrp92wbB8snFOR4CSmW1DKPCNyw1FgovdoKkzcNytN8B6GZf356SAHA1A/MPIgBcRZgAHniA36+PLwExASykBLCEEIBd2fJDQC/IEoa2wIAAdtUXiRoB3HP3PWF1EADVD2NpxyMACbO9/K9/fWX4NK08PrHzzuGss+Ud/yAGcAOnJT+j9HNYUkCY2FdyA5gPxOM15O9///t57GI6snGFxVUXBmWZEQLoehAower/0Ic+FBZYcEF+EAsHgEwARAjtW4BBK4CXcgJwWwC7DRi3yyZj1BYvb8NjsOxHcL1JnssL7zDw+ijvBAQBuASTBHeQbeuMd08tYjtoAhsEQCuAKgFA+ZUA8EReJIAHmwSA7wOOQwCf1pdjZASw2gerW4D4PgBTEHLnZRtyhQGgmDC/OPtsfoPOAd/5Tjhs+nReyn//4B9wHBSLsosikxv1RGAsHXCOwQdjPpz8ppx7f3HvsLM77KMmMMxYPWZGJoAFQADyFCA+115bAWAuPQGUKwDcLqxtAfgQkGTGEwBQk7NJAv0Xt9bJ+iPja2EZEYwAr5O6BagnHAWeSNiNxqJC7ZSA3LGjUwTXL/9RECYAPAlYWwE8/kT8KTATwMMPOwJ4MBHA3IkA8DTgPHPXCKAGTwCHtRDA6s27ALwCcARAdoQruwbbn+N11xtssCHfyzeDuw5rr7NOuI/6B8Np2TW6mU7EsvzyK/CBJuoH+aB+AKsQvq1I6Xw97QSQ+mFIBLBtLwKIKwDeAvQ9A3iV3x1pKwDMj8kSyK4qb5MC1SFu0RV/pWe/sw1e5waByzFQPfprQEROlggYrqHWIYFnuqlDaktBADTJmOwmATzOBIA9eIMA/BbAEwDOAEYggMMPm04EICfingD4NmDlOYD4XQDqFxXFBjZDy67BFAZ9WXPNtfhAjMeCADNt2rRw+eX63X+t7ze/+U047rjjwo9+9CPGj3/04/DjH58UTiLgFhsetDn55FP4M9w/PfWn4dRTTw1HHX1U2GLLLcIHPvCBlrcHWzsJFGeA2WKLLUcggD4rAD0EbF0B9CSAKEdAXdYmBdQR9QRu1Klui0ttGQ1eD7MVgFUyJdAK4WZbOzyV8ARUEkB5BoDXZRkBVFcASgDLVlcA80yEAO4GAXywSQD8WvDKG4FkDOUFnqIgEl4D+r3hRhuFE048gfPDXH3V1aywuF8OY2UfeOCBYeuttwk77LADf4EHwMc48S7+D3/4w4yPsL1t2JYUEeEf//jHw1FHHRWenSl7/Fz5ARsDB06JXwNuMTYBYC6YAN7ZfQZQOwRsEkBxG1BlCPDyNRmkMlP5sF2dsM1fxMX4IYD0DConuw04FQRgFYmtnctY1MInDd8OvwKwLwMXBPCkEoAqf40A+C6AEgDeSCsEsESYu0oANaF3BDD98AoB3M2HgOWvAfFWYDsERN9qplaXwfJcffVVYZVVVgm77757+OLee/OvCI8/QQjBK+y4BvX5+gVl+wQwIIB4G5DzWnxZRkkACzAB4HYsXl7Kh4AFAXSfAbSvADICIJgsTenWFeWrjXGwK7/4rf7cLt19IDoHlCsAVOoSThrSUa1H7akCD2CsOxEAXvZQJwD5JkAXAeA399gCzD333EoAizkC0G/e9SYAWgHYXQANiwRQvBFo3+y14BL23PPPhYO+973wsZ0+Fk772WlcdqozKYz4ZX8Pgzf//N///V/41re/Ha65Vm7T2TmBAX2AoiVA8RSUwAN1wEYeyJKU1YZUhwFmiy2wAhieAOYnAliykwBmJALQXwNWCeD5QQTgZHhiBNAm/1JHvOKjTnOrjXQWNwqsPJTjfgswXqF94CuWjpp78vAEYCzOBECTi0m2Q0CcAtcIAAdxtRVAIoCFhABI+Oaeq+8KICnwdNoCfMaeA9Cwu+8iAlh9Da4XxtLu+6V9sxUAlAC38jbYcIPw/R/8gN8KdBLty2FkCW0Kk9eNtpWmVH76n/sNFg57EOiPwNpRbw8Ag58Dxy0A9S9Pk5fRIIAlCwJ417v014AFAbSsADD/tZ8Dt60AML6lrI0H6IHaUSdEL2wFwPWSG3aMt/AhYfmknLgCmLzyNxqIDhgQj05kAzFZZCsAnkR5sus1JYBRtgD5CmAh/joQVgBzzTU331eHyQmgFPq0AvAEYGG4OoMAHioIwH8cFAaPsC63/PL8pSKYI444ImxDCgEDBSnrtqszxsWIkEFjwuM0aahMJXJps7nJHSsAS5sQCWAbIoD5jQAWD4sSASy44IK8AugkAEKDAAatAFiGTG6bsjZRcB0Kc2M8oTemM2jPGIjlEyZ+GxCwBnIHAFQGAUQ4uSXOdZqBdGXYGHD9MhavEQAEpe8WIK4ASOHxQkomABK+ueaaK3ziE4MIQPxoD8z0ww5rrADwVp+11lo7PPRQSQBfCt/5bjoERDiugLt8apdw7nnnhVVXWy0ceNBBHI/5jHWTH3gzjfTdIx8XmFEIYJtIAPIUIOZiFAJ4buaQKwAvY1MG1RnWG62XgDgj19ieEZDKn0VnAL4TKUw6GlltwvB1eQKwLcAgAsBTgIkA7osrAHxpB1d8IwAIXz8CkDC0B8YTgIXdc889fA/dTuUt3BMA+gEDUtp550/wuwG/+rWv8pt+TUGsblyBYfDDHXzz/8ijjuTVQonDDz+c798fRm0yTJ+eu7FiQZoEhE/nw8wjKL+VdeSRR3I9uI341NPyIZLGNoPbRzbHym3A7t8CmO0JYJtEAIslAnjnO9+Z3wZ8tCSA4gwABPD880wAL73U4xCwImuTQK4HphdJhk2HfNioEOUHsjOAQfD7oNFhKwL2ayOmClanTCJd/f8qvwTsRwBpBXCfEcCtRABLJwJYZNFFWfjmmrONALwgC9AeGNkCyK8B0VZoA4TwtNN+xg8qwWBuYPBxUPwcGGVyWmesPBipQxTFpz3rrLP4kHL33XYLu+66a9ht193CbuQGdt9t9+gGEG/AR0E/85lPh09/2vAp/v2/IYV/mvoi8XDj81+77rZreHDGg1y/kFIagwiOFQKovxYcSP0B/AoAr2PHbVjcjcGn2moEgLlsJwB5EtC2AG8mAZhCsn4YTFG17knBykR9U7IFGARUbMoPu0EEmmZcWH02icNsAdIK4MG0AigJYJFFw2JYAcw5d08CSCsAXFltBWC34LyB1wjg0EMPS2cMGmZXehjU2X76zkneNIP6AbSb7xpYGGxOURAApbM8grw/TQKQA0B8qm3BBSoE0LkFIALgFcCbSQB5mVyH1eXck4SVi/pmAQGk8msdKgdgUvB1yCTKwddIW4D7SgKYix86MQKYk1cAn2DB7LsFOAyPAuttwHgPnt2kAGQDJux4QGiFFVbi+mHQH5QFw3XAZrf6IyRMHhZKPwOOoPLzsPpYVkHz2gzXclAuwRTem0gC4mWDdwJeeOHF7B6VADAXTAD/O7UEADT7PT5syW+KGd2u3giKa4QNASsX9czaFYA2PHWqNgh52Kjw9UYCoEnFyx5KAni6SgBuC1AjgAVBAHgngBDAxz8+GQJgWHrEqcAfffTRYeWVV+F3BphhhQDo6t9E5R5+DEtKavBxeJsNowxvg455bLe2HW2DwbL7q1/7Gr95CQb1SYwYvA/gwoscAZCdymojgG0KAlgkEsCPf/zj/gTgtwAvv/SmEQDA8g+dQB2xLlev2pNAgwC4AS7BRFAwlXQAnZX67KQ+rQLMHh++3kgAQ50ByAoA+9hEALfy7889AUD4mAB26kMA2OMmAii3APS/EH4B4mEOOOCAsOKKK4Vzzj6H+vAqh73VTGw/2UZOUK4ddtwxbLzJJokEaI7MbLP1NuGii0cjgMWJAHAAKASwgBJAfQXgfxCUrwDsEBBvBp5VW4Aknyz3VrbqBIerPWlwXQDVN0tXAFHhI2QgJqn4Bl8vJhCTiUmtEcDTzzzNQmHfBcwI4EEhALx+W1YAQgB4GQXeC7gYCd+oK4AqAWTpBaJIIvg/+9npYY011grrrbs+vxhzu49uF3bYfvuw/XbbsfujDHl2/6P6DL89xw+Yfzuk3y7FcxrYePbf+c0t6QXbx/oonIDPlOFOBcaYmkttdW0nAoDBxQAHhBtuvDGvuGAwVjAbbrhRy6PAQJ0A8FsFvI0ZDwHhABBzgUeD3/m//xtXAPigK+aymwBmOgJ4Obz8yssZAUztT4J9WdAH0xOEp/o8LM24MP17UwiA3Y0BmDBcvcziHQRgK4BeBLCUbAFAAAvTVQdXHyGAj7NgthOA+NEeGN4C9FwBGEyZ8PKK3/zmmnDuOeeGs848M5x++ukMfCz052f8nO0zTj+DwsgmN2xO87OfMYH8jG0P5HfpKoj5TvtZOO2008JPf/pT/jXgKSefEk44/gRS4AtSPzyovdbuN974B99dWGe99cKTTz3JYVBoKP8jeAsSJUPavAwbR0EigK0zAsAr2kAA/9uDAPA0YJ0AaAVQbAH++lchgLgK6CuzfHGrgMoo/SA91gnNw26uR3UFaZw9CVg74m3ANsaZNHxnmgRg/lqcoO8E+DptBTBoC9BJAPc7AiCFZwIgocMTaHPMMVfYaacuAkgCjPbA4GS/SgCcvh22HXirGm4nbAcYPxZ77LlHWHvddUgRn9BYMRLvkcbNYASAcwMhALkFWBLAsyMSQHkGEL8Q7OTJlGdY5LILd1mmxafwiFrYIBhpVWD1zdpDQIWRALu509Yg6rzZHG6D1ReuLC0fsBVAGwE8/bRuAUhQPAHgkdxEAPcrAdAWwBEAzgDmmGPO8LGP7cSC2SSAHGgPDG8B9K3AfVcABlwlkQdzhysU3mFv77EfG3q3JPNXYHXGuiFsNAc1mNLaGMB8/gtfCGuuvTaPOQyPG9m+n37cDFUCWGQ4AmjfAhABuDMA61e8+isga+hXU/6GgZNV9XP5sM09EVjbiz4oHAGY3RcoMC+0E65T1vno1rplMAzlgA0JrUt+ByAE0LYFePrp+iHgQw8/1CAAvINOCGBBErqF+QxgMAEkP9oE09gCkM3gtAOgad+OxsYBZt/99uM3EuFtSwiDcsc+aroSngDmIQLAbVjcAsRcZATwbIUA9NXgw20BKncCxpFPknVxq7xrmWxTmNWRhU8YVi/awQSQVeIOOxKGUPQRkCk9/BwGltWwDLWwJnz5mDxMZEkAmPh8BSAEgF8CNglA7gKAALDnxy0nCB2WnyCAnVoJIBdotAfmsEPxVR29DYg8ZDNi+g5oWijDTTfeGC6+6KLwq1/9KlxyySXhkosvCRdffHG4mNwXqxsn7BzG/hSeh6kf+RRc3iVULpX9q19dGn516aXhUuCyyyIuU1x6mcYR0BbDRdS2O+68g1qLtqPVYtstwr332Sfs/aV92B1XQoyk9B4ZAcwzL63AHAHMTwTwPx0E0LEFwKPUTAAvl4eASgBOnoYnAKRHPnOTTeVkesfxyc9x6rd0Wfqh0NRfrp/KH7wFYEKwAnxBtbCecB2NnSQ7wQ/esKD8VraiJABM8ksv4dPgJQH8hW8bPfroI0IAD7UTAN5Gg3cCYPnZvQLwAo3bgHL76/DDj6gTAMDp2wHlgY2+4KOk6627Xth0k03DxhttzNhk403CJpvkwAc9BNPY3iT6xb0J5Wd702ZelLcxytwYZVMdbEvcpopplBfgMjnfxmGzadPCOuusHQ76nvxQia/w2kfuA4fKa8atbwk2fjmMAHAXoEkA8xMB/E/Aa8xqW4An/DsBiABwNyKuAF5oI4DmFoAvml7e+sgs5WuGwabyLD6rY4qhbe4mgEz5E/CSzTKsL7jDZZiDpWkMFqMtvIQvXyYwWwFUCAAHUkwAfPXXFUBGANgCtBDA7H0IQGAEgNdn4WMiXqgpuhcBMDjH28eUbWeoHyaLZ+SKb0gE0FwBzE8E8D8dBOBXACCA1hXAK80VQJInRacsWlxHGtU7TlOWbcjkeBJI/TB96yCA0ZW8iqIzsdM0GOx38XHgvDvaPaDlCJoE0LkC0OV/bQVwS40AFl0szD77HEMTwNm/ODtMm7YZu9HmN5CP3GX6VnBadXQYTjdhDGsabS/QvPUHJKX3qG8BFulJAPY0YIUA3AoAW8QGARRb44bMMZystqYhkAzENHC7ciMonusB1D0+RKelXpTbtQKIHZ4cEdQ6gkagDWmAUrpk+/h+SHXUCQCHPjkBuBVAdQtwf7jllhoBLDoUAYiwv8F71A+utno4++xzOJ+ZMn0VmvatbFhZCbUx6AfLm6ONADAXGQE8+2z7CoDQtQLICIAA+clWARV5SxhCXiHbBs3H8o46AJX/4dGls3/L6hx8BtAobHKEYGBFt4GDn8MwSM6OYV2QNOXAVVcAkQCelS0ACUXbCuDe++5tIQC8E2A4AgDsXj4O2PCCkRNPPDE8/9zzFEeR/4Qm9b19TJqwtDmaBLAYPwXIBDCfJ4COLUB1BfBCCwGI8nsCaMpdC/TqLn6VYfbn8pmFFXHjIm3Xc70VXRlAANxp7rgfhLygUYAOt4VLw3TA/GA2/C2o9Aftbl8BGAHkWwC8mbdKAEsulQgALwWh/acnAAgoyakT2lKgxW8kcMUVV/C39PGVHmwJttxyS35DjmFzszffPGy22WaMaZtN4/f5bzrNDvHkQA7P2m+8ycZho402IsAmbKy2Ax69Tdiw8G8UNqAwIMUTuEzyO3A9G2/EdRrQps222JzfV3jRxfITX8xL6r8fkzb4tDk8Acw997z8IBaeAQAZGwHgOwYlAfAHQo0AKoeAOQG8yj8aYwKwuwAs+05WS7kbAMmj+Vw5eVnkHnhB7os2PZVw07WOLYAklNsfVhjstoJHBzfG3NQoZkEbLAyec3dD82tZhi4CwFKxSgAPP5wI4N46Adg7AWafffaWFUBNqNWvaTkPtf2WW24JF110cTj/ggvCeeedx1/wqeG8c88Lv/zlLwnnh1+ef344v4EL2MajuRdeeCH/zv4igMpOt/bcbT69XWe2AX4GbgO69HaL8OJL5PYibvOhHtRnOP+C88O5553LP8ZBP4UUre82Dm4sGvBpcjQIYNEmAdTOAGoE0HUGEAmAIASQ5CmTudKfhRNgGwrZRJiUl+La0owGr7cpzLenxxbAgwpiYpgsCTQ6DT/BBlPCigFuRV6WsXckAJrcOgHkWwC8mhsEgF8BJgK4hV9COecccxIBLCAEQMI3+2w1AhgASgvYSuCf1STltb6X/hosTRM5AcyTCIDmokEADxZbAPcgUHUF8KJbAeDjIBkBeJknOSO7Ln8mrxoPt+pYKZtTgy7dTHGOAMpEgvjgQ+y4tw2apoo+aZrggYNb7XJw+8CXNzoByAoAHwUFAdx3HxHAzY4A5lcCoBXAbEQAO+74MRbM3gRgoDw4LAMR8B2RDtT6an2rgR/TpT5PGayOFshVk9rugDY3xiCirvQedQJYuEkA2AKUBGArAEL3FkBWAOgjxrFBAKbcGYow9JXSWpzlZdkuYPE+3dQg9YHbRujeAmACfccZwyv1QFQ6ngbTu8uwMg5l5f0pCQCT2ySAp9oJQFcAuBNwc4MA5J0AYxFAF6i8Ev8MhvtCf5qoK71HGwGAjEEA//3f/92PAJ5MW4DnlABedGcA+IIUfyG4RgCEXO4ISm45UvqUz7lhV9JMDNU7edgC6DaA6m5dAQDcae64s4vCfPpxYYOTDRK5ZXDVrQNbDrS306DKxMVvAtCkvoovA5cEQFeD/gSwJD/5hzfSggCw/JwyAgCoTA8zUAaYq6+6KhxyyCH8Nl683Rc44nB94y/Z4j88HIk39jKODEdR2qOOPIpx9FGGo9k+5uij69D4ozkvQcvjNwJrvQnTk3u6vHEY7oMPPjicfc7Z3Pasj+zvh0gAW26VCGAhIQC8IIQJ4MQmAeAxb5CAJwD8BqROAPp7gL+2rABMLlnWvBwSEOfS2WqB87jwRjpFLWx0lPpp+msEMOBJwPT8M2WKBODCMlj4CIgKm+CVWRor/mQnWBqZjLwcmzxbAWRbgOeeYwLAc+GRAPQpwFYCWCIRgP0icEoJAKByMzfhH2+IIvzoxBP5JR27fPKT/ObfnT/xCcXO4ZPk/+TOn3TYOexCtkDjKW0XdjHsDCC/2J+i+vB5c8anPhU+w28JJpthbwn+NL89GG8Jhv2xnXYKPyASgBKLQlu/moreBiMAvEgUL2fFFgy3AEHG8803X/if//ZbgAcTAfAZgHsQ6MkneQuAs4JIAPEMAATQ3AL4g0CA5Q/6k8kk3AmeACRPbnvZn4zyd+liHof6mgSQddIyDFLyrrh+MCVvhBeDygPm3Da4kr/oC6EkAL8FwFeBPAGU7wKY8dCM6hYgJ4CFmQDwyiuYKSGAGqgu2G9H0+gLwyt6u38QAfx3JIBn8xVARgC6Aii3AJ4ASFZazwAIIo+QN1P8JKem1N7NfmdHt5NZC6vClVOH6ajBwlyasg+E7jMAdheFlBUUrDgqbEDjILAfbmpf1nkZbI536Sx/SifICYC2AAMIwH4J2JsASPhme89sYYcdZjEBKHB4iDoZlf6XwKpuHNTK7AsrA09DGlJfmsoubo82AliI39EoBGBnACCAtAKonQHEFcBzLVuAXgRAfnInee2wNa3ZMS/sseH0Mmtr0x11jNBKAGmyrQDYhpRuYigGBI20k9QsXt1e2OG2CbHBtnbK5KUzAFkBvNQgAAiHEQAeAmICmFEjAHcGoFuA9xAB2BZAlrcmxKUATyG49refyfthit8OkAYMHpgSApBnAEDGRgB4srIkgJIEsjMAJYB0G7C+AshIwOTM5I7cJqvszuRT03q4sGr8UOjSSYpDu7nteTq0s/MQUOA7XhZifh9WoiuuAgwo2e2DYsru0pS2A08cTSITAO3r0hZAPgzaWAGw8ucEcM+990QCwJdomADmS2cAngDSCsCEdpCQl/FDgOrzwKEmyApthvDPoCUwbMGM6H/gAeABfs8hnm9ow32KRpzlJaCcJlKdDBpHjCWAcxUA7qeefrroUzk2TdgKwBMADgCZAOYlAvgvIoATcgLAvBoBpBXAk0wArSsAvgsw+AyAbUUWV/hjuCMGRkVm+8N0q6KHmcIXcQRrcy8CyN2l39w1fw/UBsCHNeKVADSuQQJ+RaMTh8c58xVAxxZAr/5dBDA7EQBOnCF0Cy28sBJAuQUwoR1OwOvwZRTQOmG+/rWvh8UXXSy8f5VVwiorr0wQe+WVVg4rrbSSAm7DSvya8SpiegL583wOVH4eJmlXRr0O3J5VpC2rUPuWWWYZftswnrWv97mOcguAF7PWCABfUAYB4IddngDSCkAOAf0K4MWXuj8QCkTZIngCsAPohoIbonxOEqU+Dgjj9qe4dgJAZymh/JDAbGwLrAArxLsNtbAh4QcLg1qGEWywGS48gdqgk4ZJxEdBOrcAjw9BALPPEQkAwvfuXgSQC/LwsHLagRUAviyMtttVdsYM2HLVtThscdBPbHdwhWwHDkVryNPxuQmgd1BsDFFfuuLLY9X330erChpLfAgVB3PNftT6nhAJgFYAeCQbKzAcAC6w4IL8jsD/AgHQFgAEgFeNoS2tBEArkIwASCbqBFA5BzB5LOTSwuKFaWy06ZLpmUceL+0lmJ3lk3QtBADbFZBlItuHZ4VrfOafANxgemVntkWch4v3BIB7ujkB5FsA/FbcEwBeCOoJ4F4jgCWXYgKYlwgAQvde2n+++921Q0AT2n6CPTysXALVC/vtaLJ+MGp9TUhbgK3CnHPMxSswEDF+myEE8F9CAM8oARAxtRMAbQGeHUwAtgowvWDZKmWtDCN3GwnUL1jjoksHze/DpB2tKwBTHmTi1YDb//iVQE4SiDd7gtCBtJVAXGrBztKVy69EANkKgPZ6L9KE5yuADgKgqxV+EXjzLTkBzI8fBDEBvCdsv/0OLJg5AQwn3INRlpfDn64zKLAKjq984muKgbFh4M4FAe2g5jiU/W0C5cBgC4DXseMWYCKAeZkAcBcgEkC5AtDfA9gKQM4AnhuwAhA5Eln38kUw2VRb3CqHLmyWIraVANvA+pDSVQlAlF0LsEwMFx/9Ep/ym9+H+3gjj+QfCTawIICG0ntIP+yzYJ4AMOF9CAAHXUwA9xoBpC0AEwC2AJ4ASLBJTrPDOfZH1AV7MMpyFNU6NKwE/Umo1TGVKOvvQi2/ICeAOSMBYC5AAP/5n8UKgLYlnSuAHgTQ9k4AkcNC/iai9KPoCPKkfNLWtjDxg7SaKwDtJCcmWKakuG22KbeHhA8NN4ide6m2SYiQ9sskyk+BmQBokhtbgL4EsMSSYTasAGi5KY8DCwFst932LBQQFmlXAW7jBFGWXfp9mPkbqI3ZpOHq820c2LY6cAXDOG+++RZMxO8lAliACWABJYD/LLYAbWcA/jmAQQRQOQNQDFzOT4QQ2jBIzzQO7Ta49LoCwMA2M1mHU8dz1MI43JWRwn3Y6GiQgfdXBppXKtROnkSazEgAWAFEAnimTgAPFVuANgJYcKHwzne9Ox4C/svMGoMzgNlmcwRAczFPjQAaWwC5FVhfAbwUXqoRQO0QsAKWTyY22Hnc1KPSNq+jDX2NBJBn8ld667Rd2WUAFOy2lYKkTzC/levdo8OzLQY7Y98OAuAtwGt/zQggngHQVeDJDgKorgBmm50/SgGhw94Tt6Nwe2ufvfcJn//c5yO+8HngC9H/ub0+x9hrr73CXp/dK3yW8VmFdwv2YkhaS5/7Xfo9Pxv23HPPsOceCu9W7LH7HgSy4WaQP7qb6QVULmDlk426JgX0Ufqa9036J32UerU9ZGMs3/e+5cI888wX9/+9CSDbApRnAM0nAbNfBLbJMWTxdVV89fu46J4ovK4pVCdzfwkXT22uHwJSQlN2U36GPwU1xEosrvS7tJPAEAMqyk/gZVy+ArAtAAQFH6qEcOCbAIkA5Dba/Q/cnwhAbwOCAGwFgBdR4uUgIAE8hYZn0f/7fxRwE/AbdcH/Cv5XgK/Y/O//vlNh/jryPLnf3D6+CatnVqPWFoFvN8PGx6GWDx//mGeeeXXpvyATwHw0DwgDAZxwwgk9CUBXANUfAw3eAsQVKWwPl6YNdvHKLmKMQTrj42tpNcz0Um3WY7hdH9D+FgIgUEK+gnKBrhDYGifhliely8ppRd90FYBta+EFMgJwWwC8+AETLgSQbwHsMeBIAPenFcBNN9/MX6MVApg3EoCRAD+Q8l48G2BY6C0LvEADqMW9HcBXfUUigHmUAIZYAQxxG1DkvilnuPoz2C9nFRzXkwyGh+mO6aEPUze1lXUYtvk5jYDfCVAjAOmoUx6XycJ8QSkvuTmudHtYeWX4COg1uNJeTCAmsw8B+BUAHmHFo6+eAPAaat4C0NUGBIC7AXxHgMngX5ilYAKALfPABPAfQxAADgGHJoAO+WWZzC9O7Vf6EeBu4RlyAlA43UM8p0EYh6c4RwApEO6o6LA1s1QkNsepvxtWtnenepJ78gBTWz8GEUDbFqBBADflBGDK3wVZIRSC+y/0wHDjhrFOKwBsAZ4RAujzKHDcAsiLQWsE0P6VYPWTHZW818VpUsj1y3ST7UabJQxutLVlCyCZSnC4q8DDyMHyd9uzDtb2vgQwcAUwAgGUwGuragLcDslTK2soUFnzzZfKhbua7q0IGgMBtVmRjxH6Mh/PSYMAyhVAfBAIvwa0R4HbbwPi3YZ+BdCQs1mi7DXdKfVO5R3+rJ3abg4zWFzHXQDrsEdeaR+gzNIu3ROCToSxsG93JwG03ga0M4D8EBCfox6HABhRoOsor34cXivn/wW4cUnIlR+Y1xGA3AUYRADuDOB5RwDFCsBWAUkHnMy9KUj6FHXR3YWL7WS7yMftB1J4IoCYOBVSwiqJedTPcT6e3Rpf2bdwHk5bixsRJRNrm4FBBABhgHB03QW4hwjg1ltv47sA+PXf3EoAuBsgIMEshfdfmDUgUsAc8Bbgv/4rnHzSyXzCXycA/xzA4EeBB64AZilQv6EZB52SNibZz/JpnEDyuRWABHImzeyB+OhWP+dDGNwxzMW5cpvurrDJQNorE9hKAHSleKplC2AEcO8994a77747/PnPfw4rr7wKP/iDqw2U3hMAfh9QFdB/YlifYRvKNLMCuCsz99xz823CX/ziF7yq458DlwTgzwAqBFA+CFQSAMt/RdZmDVC3tiPqjdjSLgmXOLURru22NJYHq+VsC+ATmZsLNHcJjUuFJr81QspO8SlsTAzYe/l2YwL73gYsCQBPAuKHQHfccQf5H+Lv0uMnp0IApvyOBJy/JqjjwitaG3y69ny+zUDpR5oeyPISYpx3p3bU21KHzzMImI855sCPtOYLN9xwA/9sGfOFnyt3rgCefTYngIFbgLr8TuSUvwpfp7hFt8TPtyWzdml8DHPtdmGC2hkAJaqhZBF2q51VxuUkfw6rx7unDtbevgRQ2wIIAdzHBIAflhx44EHh3/79P1jg8CRaJvyTQlTOfyKM2idSbiETBw5Xm4AXgWA+cPVfe+21ef6w/MfvORoEYCsAmvN4F8DdBmysAAoCSMo31fA6Y+48zNoD2/xsI426GUgHvyGWqQTgH26whN42SGZyG4o4trlgIJXZHub9k4e0LW0BXvMEEJ8ETFuAKgE8+AC/wOKuu+/ircC1117Le078HmCuuedhAZwyIngbAY9GC4gYM389fQ2j5AGw9wcB/Pu//zsR9IF8ZcerzPBqt0gAjze3AJj7gVsAI4DKLwJnPbweeZvaZbbXQ7M13Nw+f74C0MwlrIAuv8HYRxrkyq4gP6UcDW1LL98+WwFkBDBwCyAkgH3kfffLG2xuv/12jscz9P/f//dvLKj4OAUIIJIAbGwPABZQ2CU0bU+IQkCxJD8rGa9Akt/KtjCBlZHiOC3SaP4S3P6Yrx9q5QgRmFvGx5Q7+hmaxkPT1OrKIf3CY9jvec97Aj7V/vvf/56X/ngXYSQAt/zHi1/SFqBCACQbOAhMBCAXEHsOQOS9LnOTgZUvetSMlzhpRxPx4gxoGrYN5BdIWbICMEWkBPYADbsdrKASMdzZqRLAGj1r4dtoKwDbAvj3AXSdATAB4CCQria4DXjXXXcxbrn1lrDUUkuHd77zXUQAOHySK9DEYIrzJiIRmdqqdIMIZNIwJRegLYk04MdrwXD492//9m/hoIMO4qX9vffex3OHucSqzu//G08ClncBXuqxBRjmwjXycwI1/XFh1Jbo5/aI2yu/6KLqs4blZbktQOygwQop/CUxGHy4NcZXlGxrkDVkqpDaUxJAuQKA0JQEkG0DHpBtwN333M2rANwZOPPMM8O73v1ufiYABNBNAs24uSnMIPHDkQiIpxbeXlZXeBk2Dmws2srtiuuDlHfOueaibdjc4T//6z/DWrT3B1EDIG3MX+MpQE8ANOdxC9DxJKARgCeBurxNCk19yeOoDbC5HYroljQN3XVI6QSNLUCbghu4gkq4J4iykqZ/UPgE4No2LgHwyyz1gSCsAP74xz8yKRx33HF8SxAvBJmHhB5LUdi5wA4BXPmBWtxUQ+v2V9zYngLxamxhtfLGhZWrdcQ2URiu+Kz8BBz8Lbb4YuHnZ/6c5wxfcY5Xf13+21eBxiIAJ09ezuIvAicCK9vXkYex8pegFYC1LbZR29kMM0j5iQA0gc8wCGV6Kzy62fadKNEWPj48Cw4igNoWwAgAwH4yrgLuvjvceeedkQROPvkU/k36f/zHf9JydE4WThABYCuDWYMpqA9Xc8DcZfwsBA5ccbUHoPxYfeEn1muutWY49LBDw0033cRXfpA15g7z2Lj6OwLAnDMB8I+B3Bag5RAwrgAqsjY+BulB0qPUBoQlRJ1zfg5ztugjkMomAki/Xsp+BTgMXIXRr2FStq84b0ATg+J7IvZFJs8TAN4K3E0Aeg6gJOBXAXYWgNuCf/zjH9h/6WWXhS223IpXA3gnHc4GZpttNn5lFe5NA3BPGVC+1sF1lfBpHLK2md+7Hcp8Zb0x3Pwt5TQw+5wpvQLv+hNIGQjDVuvdpPR4zwLeHbDEEkuE3XbbLRx//PHhtJ+dxndpME8zaL6y0/+CAKD8GQHwGUD7rwEjATj5LmVtss8A1ORfwuTqn2wJV13TcNM/TmftVUS3xjceBPKZBoILqbjVb7BGxvLZboYPjUEPAllbCMOtANKnwWwVgG8EzpghX9Oxd9qDBO5kEvhj+POfbw+//8MfeEuw7bYfDssssywvW/EBEQguHh1+93veU0FLOG0pxF3EI9zDxeEUPMdsbPs0JWJ8WS7hXeZuic/g09TKdGG4cjfCXbykUTeFvQdESiSApT9eyLr+BuuHvT63VzjmmGPCT045hQjguHDZ5Zex4oMA+OrvlD/e/gNU+fF1YCOA8teAjd8C6CfCqwQw0eV/T+DCZnqD9mS65NuY3B4prWxfIgHwnYAxVwDGLtGtfg7TSqUuCxf/1EDbRugigMY7AUl4atsAWwU0SODOO8Ltt/8p3HbbbeHmW24Ov/71r8NPfvKT8P3vfz98/etfD/vtt1/Ye++9wxe/8IXw+c9/Pnzuc4C9GgzQV33pa8LYjqB4pI3Q141ROQlSLl499gWqI+GLVCfhi2p7/xepPYq9AWpfwj4MvN5sn308vsT4kuFLwL5h330V3p1hPx6D/fb7cvgy2+Jm/5f3Z+wP7L9/+Mr+Xwlf+Yriq18NX/3q18I3vvGNcMABB4SDDz44/PDYY1npTz31J+GkH/84/PjHPwqnn/6z8Lvf/S7OFe/9Tflbrv4lAeCDKu0rALf8V8ip+6gYRe5z3WF9c4h6xrakT23N3UknpTwmAL4qj6r8ABcobilc/c5tDZNwqTyFTxhFX2oEgMkWAig+DFISwMOJABokcO898UwAvxMACfzmN78JF154YfjZz37GP0s9+uijwxFHHBGmT58eDjvssHDooYcSDgmHHNINSyd2DpRTYvp0YDrjcODwwxOOODwccfgRAmpLDUceeWTCUUeFo0ocfRT3xYArsMcP2f5hOOaH5P7hDzMcC5DyGrBSEhzPS3jghBMIJ57Av+TDe/1/fNKPw0knnRROPvnkcAopPXDyySdx2CmnnBx++tOf0hifFn71q0t4G8bzBeXPrv5J+e1XgABuAfYmAF0BeHmqytxI8LpRi6uFE7QNuX5Br7SN3u1gZGD54xYgV8hmxoHQPFwByijCfTrfYIGv39pQcw8HX29JALVPg0EwagTAJOBWAUwC+Lim3nKC8NlqwEgATwtefPHF4ec//zldpX7Mwn7MMUezIkHBagoY4RWxxFFHNhUTKJTzaKoL9ZVKyiAFrSkp49hcUY89DsrqFfa4qLAerLyME+pQxc7wI1F0Vna6kmOcoNym9Kz4PzmFV1OnnnpqVHhc8c844/Rw5plnhHPPPSfceOONPCcN5S+u/sAoBADZYagsmfJMLVBPHpa2zmRzG0yfLFzbB7e20+tAarshOwNAZK40w8Aqr/rNrZUmEpCO5e5JwdVL4Ank5ZwRgHwcFBPvCQBCAyFqJYDKSgAkgNUAiACrgTvu+DMtSW8L1113XbjssstISM/l1QCuYBDyH5Hgn0gKUVUUoFSUAj86UZSmhClRCVOqEriamqKVOOVkueJ6YOkNZTSlZNBSHMr5EwLsGqC4Pz2VANvhtNPMPo0B5cY4QcFPP/10UvIzGCDRM88knHVmOOuss/iXfmeffTaP6+VXXM6ky8v+Acqf9v/tBICVYSsBTPmjwLVyk66YPFtY0iMXpu0rYWRQpke5sgLgSKnUZxwXvjKvkFZ5siePkgCa3wYEAegK4OkKATgSsLsBfhVgJPDgg/gctqwG7Gzgjj/fwftS/CoNZwIXXnAhC+7pdOWC4LNymBIVwP62VKISpTJ5mEKVMAVLdgFVvBpMGRv4uShoK6C4Z55ZxVkAKbThF78Q5TYFP+ccwbnnnMPKft5554Zfnnde+OUvfxnOP//8cMkll4Tf/va3POam/PWlv8CUv0EAtApkAiB56CIA3E1K8luXucnA60cZJkg6pG6Ftc/D0nh/giMAW2L4xH3Rls9XxgoJt4YnBvMdnSCsHZHB/RYgrQBmznyWfzwCoehDAHUSkNWAEQGTwB138HPpENKrr76a9qq/YuGFgOOK9nNSHlYiVrIzuhXNoHmqyvbzM6O7pnACKFuueBmcEjZwNnA2K2cVrLDntAJKXMN5pNQeGCNWclV04IILgAsYOF+B8l999VXhD3/4A8+Hv/Jnp/4dBGA/Be5PACpPLL8VeRsbtXIljOt1OpO1ReHDuiD6l8pWApjMld83RCoit1aUGu47l+KSu4auuBpSOwCbRDkHUAJ4yQhgZkYAEKZ0DuBJIBGAJ4EHZwgByEpAICSA7YCQAPapOBy8/LLLw0UXXhTOO/c8VhooXU1Jz0S4U0zvjiBlPYsUE6gqrKKhqCUqyhpRUVhWWmo/uwvlTfil2KTEgCl1A6rgSdFFyZOyi8IDF10EXMTKf8UVV/CYYsuFeTLlryt+U/nxFKB/FwDkABeEtxYBkJ91BeFwJ6R2kA24sEHw5fAZgD9cgLuWaSxoA62xqbM1WOdrGBRfgtJrG3ICoFUATTImG/s+EACWgv7FoLVVAJOAJwB+NqC5ErDVAJam9hYhIYGb+HAQWwIIMQQcSgJFqypmFZS2VNIKoJxm5ygVtY6qsnoUiltDqcw5RKlLQME9Lr4YuJiBMcMq6orLLw/XXHMNjynG2a7+peJHOOU3AsDy3xPACy+0E0DtLkCS40kCZZNN5TOc/Ep9ebiHtWuQm9P7cqheIYAJrQAyUAWwUVH0c6XwS4cTbBC60DcdQGldWxoEQBNsBAABAAHUDgKFBBwBFKsAJgJPAnE1UCcBPK6Kw8GrrryKDwgh2FAIKBUUr6mwBlPO5pI5R0VZFeefn5bU5/8yV9bzzyelBBqKegHHez8U9QK7MpMiX+AUuASU+EJa8eRKLQp90UVie1wCkKJ7QOmBSy+9NFxOyn/1VVfRON7IqyuMv1z9K4qv8Mr/BK7+SgCY8/IxYE8ArPyzfAVgSH6vK1y3ofCbvtUQ8xhi+boF4AKmkAQAbnCl0dKY1KDJIdXd9l5ATDreCIsrAa4ITzwpBOC3AUwCfhUwgAQiGUQSkEeHjQRuvvnmcP311/O5AJayEO6LSRlM2WrKW0epxDlMYVm51Z1DlBduKHJNgQ28/C4UOQMpLmxcscVuKjdQKreHKbrHpZeK4oMsceW/8soreewwjrjrgrnprfwEXv6DAGiu7Q5A9jYgEMAr8i4AWwE0CGAK5LTpJ1BdLMOAc7Ot/qhHFq/uNlh6zktIzwHEBFNAAoSscVo5d4xRGwRDGd6WrkRRpxKAfy1YuhPwfHgWB4G6CsADI41VgCMAJoGCALpJIP1+gB8ZJuG95ZZb+A4BlrIQagg4lOAiUiAonClpUmZR6PM53Ltz+LxegT0yxS1wcURdgUtEBfbuAnhQp6rcv7qUlbuGywAaEwBX/SuuEOW/5pprmUBBphhbEHVN8YFS+f3VH2RvBMAHgMUtwFdAAK/NKgIoIbLLoPqyMPgN5Lf2wEZYbKPCwixPdHN5Up+sAACXaKoQG63uHNZRbU/VPwguvasXsInErcB4EEgEYNsAvh2o2wAIkD8LqJHAw5WVABNB5WzAHhiylQBOr0ECuEOAc4Grr5LVAIQfSgPlgkLWFLgEp6MrNOCVuUSpvAYo78VQVrgvGXCVju6mQtcgV3C5ikflvixX8BKXA6T0ovhXMKD8OETFeIFAcZcFb2x67LFi74+580ofIcqPw7+nnno67v+NAMrlf3n1zwnAy9s48LLt5X8AnExLewp/BT5PKkvq7kEAxQHIMPCNg1srN9s3JKElnPdCw0DKkfqpD5EAaBUAlqelHm8DQAC0DeDDwKflGwEQGtsKtJ0HdJGAh5CA3Rm4J9x15138UhGQwK233sqn2ddddz0LOATdiOBXpGSsnASsDKpKbbamawMrrdkl6AoNu+1KXeJSoKHYTSW/FIrOaFF0VXIPLPMZqvg4MMWYYLt0/fXXhVuJNLGKwlhiPuyWH+arrviCuPQvrv5t+//W5T+hLmujoCyrkHvUxfUJsjY4dxssDdsuf1mP3gWYmqV/A7FyaUDuL6EDkblLDIjzdXsCaDwQ9DwJw8x4FgBhgWDVSaD/asBgJGAPCuG3A0YCeHQYh4O2JcD9bQg+FALKBKXLldau1N1Xayi2KHW7YnulLZW4hChzt1IDl19eV26DKfflapf49a+T4vOVn5T/Olol3XTjTeH3f/h9uPvuu/iwNS7/KwqfQZWfr/6q/HL1t/v/xROAAwgAqMtbDX3SFmm4fAlj/bB6S3nmNM5fgc8bwzSf1ZedAUwcWrE1hG2EaSPEts57d4kyblBaixe3tCcRgG0DbBVg2wBeBZCAPE3LxNpKoHtL0E0EIAG7M9BFArwlIKG31QCUCgpoSovlNwNuXL01vBOFMpfgOnooN2OAgjdQKHgGVXaPK68U5b/qqqt4HDAev/3tDbxa+vPtf+bxw1hjXjoJ4Mn8yh+v/rr0x3y3Lf8nRwB9UCkv1kE23OzXugnShrxNFmfxbbCyrC4lAEM901jbgAKpcnOnMCMGa1wOyt8aV8LSFfXrhPIqgCbZrwJqJODPBBpEMJAMctRIwM4E8E4BPDqMcwFsCXDSLauBRARQpssAUsJLL1XAzSBFNgXtglfMAWgoawdKJW6HXNXbAKU3xceW6FoaA5AiDv4wRhgvnKlg/G3p34Bd8UvF1ys/YMrPh38vvkQE8DKf/vvlf3oPgJP93vLXhpb82fZW01B9jXBrRwcaaQodaBDAYOWfENAQaww3QEH+3K2dZfgBMLSFe7hytHxph1sFMNO7swAmAWwFHAmQ4ECAbDWAqw2IwMjAYKTAeETJAVCC8ETRthrwRICrHVYEOPQCGeAqCEKAUkA5TFH642rO1wWUPSrQtj649ppruS9twDMSAPoMxQcZYt+PVRLGCHt/jCHGH/Nhip4B8+UU3yu/v/Lz3v+ldOsvXf3d/X8+OzLZ6SN3JfrmERmN/lhfAvs1fFREXTOb6proFqBXA12nrG7puORvhGm65Df3MPBtqK0CPAm8wAIyU88ESiIA7GrDS1AFfoBi5NCGx/6SCMPIwN8l8O8WABn8/ve0PVBCwJeJQQp4ohDEMBxuDDcCpFB9gP32TbCpvkkAV3Czq7jlZl79GNBfbItw4o9tEq78GCOMF8YRY29Xd6/oHpi3eNWfKc/8Z8pfW/rrrb+MAFRuvNKMBsubysGFNw9zcWSLrpg+eBmuQNNX4xxSP6RsPgSsJWxiMtsArhhu1+C8UYAfsNI9PHggtX6AJ7cHCfBqAERAAoSvCEcyAHSLwMRg8FeiFhhx4AS7lQzcFuGOO4QQoAh//OOf+GoIQDkMv/sd8Lvwe8CF9wWXSWRjZY+PPzLwzkQB/BRONtxt+BPwpz8x0GeQIcYBqyWMEcYLYxgVHHOikOV9Wubjam8wxW9Tfr7vT8iUn2DywjJqsuTco8HyU7nsLpH00YdbmFdyL9PDwNc1JAFMhgQYRUd8Z/mBJG1gE5auFpeQ36919Sp4knXC20jAiAA/G4YQPTdTtgcmZB52xRkEJhAlD08ITTKQbYKtDqAIWCGAFKAYAB6HnRSszCnFXXdy+7kPZlO4hTGoj+gn+oy+48Qf2ydc+U35ZcyTgnsIaet8FYqPX/w1lF+v/qXyewLwcjUafBnk5it/kmPRwaSHeR4KM2h8A11xBXJd600AE1Z+RWwI3N6vjctRC6+lq0HSZfXbRBckgDMBTwSeDAC8QBIChWcHTMhADNFNwKoBQohbTTUhZcLwKwolA5wxeDKwcwO5jSiPFkMp8O57nB9ASQz3RPc9zg3iSO4uoLwECsv8CQi3uDxfXkZbfms7vt3HYPd93C8D+jmDP+31cHiUxgBjYsqP8cMtW4z/889hHmg+yDZFZ7wgsDnjebT9Pg78WpW/fvUH+j+H0iGTKIdsLs/Ls/m5LorXuKwNFl+Ec7oybQuszKRrI28BpoYMzM6BwTO7dPeF5nEsK8Bky+Tj1qB9OxCAkBgReDJgQngRgpWTw/MMErrnyU9CCIgfgiiCyXHsTmSB11LbCsKTAVYGcq7wmBBCeZAIgBjcD5C6ARJRUD7kxZuOxbY49ZPb2zHcIZXRBMqqhXeC+oN+Aaz4RIB/oX6DFDEmGB9R/rSPr8HPkym9gedUD/xeedWUXwjAFD879Vc05WkYdOW38h20Pq67jEeYwruHxZAEYANSU/rhiaCt4b6D1jhhwtrAjYOibpt4JQIIhYGJwJEBg64gLFAvJ8ECTOAY5I7hGveShgtEWJk0SJjxgxReOZRk8LTbJujqgA8TSTEee1RWCUYMRg7mHhqPAvmdi0cRxraEs12kGQgqg9sY8/oy1E/gvhC4b9RHu+r7H+6Y4sdxtDEtxtwgc9am+Er87qoPNGQa8jKSHGoeKsP8KK8p2xauboWl4biYT/zjgMsyUB1D3gUYXuEHIXXMBk0axmHR3YxL4SW64gQ2sB4mAPLqsAoZ8C1DgwiTCFVaTnKYClsUOhbCHEwekUBEeIUQZKUg24i0OgAZGCH4FYIQQ7oTIQThUb8bwSuLx9Xu+DVdF9Kbd6ScGM51WBqBxUl87i+BPrHi46qPr/dS//mqj9WUKrsoN8awObYefl5M8f1Jf/zyb1T+XCa8vIh7sGw10/i86o7lkx3Dk9/qszbU5HUU+HoFfgXQWsnkld7XZY3iTsOvjeM4dftwgR/gYnAHQtNZvRHSzyQQsieMZICnBwFHCqNBBNELpwksBNuuZkwIIAMjBJCBrRCepRXCM+mWF5Slhnh3wsHH+bSTQlnusPWgP7jio5921cdKya7wPFYF6TZgym7guUtz6ZW+tuQ3BQSgH0l2+sBksYTEo3wLs/pMvvP6LUz1U8Oje0hwHeaO5bsVQFMhDFNAAB7oVKVjqZHS0HRyWrPHQbNuQyYoDBMeEiRHDozSPwRYSFV4X365JATZQoAQEinoYSMpiAeUxkjirQg8hlsLj9B+8BWf+mnLfVN8U/Ck3GmVJo93E7IrvEM5lx1yzXLB8taFQbKHeEnjFdpgYWJT+li3hDXaVPjHAZOB1tuxAvADNMUkAHCDBPCnQcTg2CC6sIlA6mN32R5uQzPMBAdCxOcH5E+fjUrj5AXN3IiX9JrXQAJqdyPsUEoEW69okRRs2yCkwMTgycGAq+bzZtfQFUfIypmFoDq5L9o3fkRXFV+U3Ck0Ld9zP8GPqcGNv3+1dw1N+ZgA9AqeZM0DaUq32kXbJoWo/Gz3PgNIgj1poDHeXUOK00HVNufpUtzkIGX79pmb/YXNJOXDyvTwa1jMUyAXWC/keoXzxKCwFYMBe2MGDix9GPtl75wBpGK2ub2fDz69f2oQ++D65hXfjwsjjhXGrkVG3RwkOZHwNMd+zkv0TQcgTZku5bf2cFjZHmuruiVOoX4L57QjItUrqN8FGMCUk0TWOQuzBsLPbh3IGKeDy351/zNB++nHyaMkib5ovUoq+Koa/ZLW8pgSjrPV6Q2qw7er7D/GiN1OFiTckMbSp5k1sPp8W5I7tjtrr8Ham/c39k3tMm4YcBkGqm+ivwUYB2hQZvPAlQP51gLeqRb9HV+Kff319Al2fJHVh2dljIFszLIxJNv8tq+FXwXJ8ohbAHeMh/tNgrXL3G9PaD/UtjH24wq3DyvHPOYvwkeBrwvlMgGwYLhEgkHLfsSPvjWw+qxBZVwcqAZsYA1leC2Nx6D4EcBKnStzSQ7ws8KzG2klvfgreWpw5PHmoBw787fZCneGE+c4S1vOP/JY/NsbeV8B8wukv77vCKd0ZmuaSSHplrQnrQBaK2pTcgv38QMIoVKHdZ4bVR6YeLc2OLl9uI9/M5CUPyqxU9YYh5WAU3h22yrArRIsj4ePq8FWFn6FIQDpuLJ9/WNgEmX8c6JNFp2sRnl3sq9xuU5QmLp9eAlfTluc90t9gBGAenzCSaOt8QA3qoS2KYLDnN914q2AqIDmh+3C+Eqvish+xKtyRhLgdMlv6YUoDBbv0nEaccf0cYWBMlK9lg7xnLZALCMLy9M2SWbyqLVjEIbNU+9rM6wdNRn0fnI35NbFFflZFzQs6gX8anudifFwax52uzif1odbHagzHgJaA6YS1qhWWzvBiI30fhoo754FaBMSC8/dTtHUjiiUxsK8Epti21U6D4ct7rzspOgcD7+WY3GSXtwpj5aj5THKNqrf0vpwzsf1WZrkNr+5a/HjI29TX1ifmhhHprry1uTVwgqQbCdlpnTwQ97NtjTqhj0skv4AjgCmDvm2IO9kYVcHx8L84JVhsw4myDVh9uFJGeFW2/wxXm2LZ8VFOPwCKcvyabzmlTotD/l9mRav5Ugac6vtEMtSd9o6JEWTNiJd7s7qQR4KL8mkDkkby1CIO9Xr/agzheV2W5iHzz91aJNNL7ulHKc8ph+mLwYf7vWJ44ow7/eQegxxCzA6CdQq48KdbWFZvDagkT6DDEhftE26oRbfN8zCPWKYClUWD8GGQrDfKUeMT2HRj3QxbZHGl+f8rEAxjYs3BfJxBqdMWTkc7su0fkm+PI+l8XFqq5uBvJwf4XBLmaksTReR4rN0cJtt4Q4c5vLGPOZ37q6wqUObPFu4l3l1x8NQCa/qCtwEjlPb3HlZZbhADwFzAvAF1cJQYBmXxZufK5dOpDjfKY3XBqbw1MBh0DbpsMvwMqyMY78TKIkzARdb3AqrGzYLvtqFcDfiLK+P7wtWrC74shO43R3xCSlOlI/cWXs7YG3zbYxhOnYc7t06rhrG4ZSnkTbG5eGG2EZ1c1hWZh7nw8zvw71dR1+ZraUrw2o6kIexHmm4uJ1+aTrRNSC5Y5imQZ/eUZ4+MzhTAsLMLtMxyvBZCBMqf6XLrnpeAAllOl7qFmn+hX9y9Jlvn8bLCNmyLQJI/ny8IebzsirpPbpJZTLA6r4WDrz++uvh/wdg9aI4qj+YVgAAAABJRU5ErkJggg==;clipPath=inset(14.06% 28.91% 14.45% 28.91% round 5%);" vertex="1" parent="1">
          <mxGeometry x="480" y="260" width="41.08" height="69.61" as="geometry" />
        </mxCell>
        <mxCell id="it2hrmfdofYpJrzfupDZ-49" value="" style="endArrow=classic;html=1;rounded=0;entryX=-0.002;entryY=0.167;entryDx=0;entryDy=0;entryPerimeter=0;dashed=1;exitX=0.995;exitY=0.696;exitDx=0;exitDy=0;exitPerimeter=0;" edge="1" parent="1" source="AWYmmsPiJHbBPY1lHnfI-35" target="it2hrmfdofYpJrzfupDZ-8">
          <mxGeometry width="50" height="50" relative="1" as="geometry">
            <mxPoint x="630" y="340" as="sourcePoint" />
            <mxPoint x="680" y="290" as="targetPoint" />
          </mxGeometry>
        </mxCell>
        <mxCell id="it2hrmfdofYpJrzfupDZ-50" value="&lt;font style=&quot;font-size: 14px;&quot;&gt;6.Self-improvement&lt;/font&gt;" style="edgeLabel;html=1;align=center;verticalAlign=middle;resizable=0;points=[];" vertex="1" connectable="0" parent="it2hrmfdofYpJrzfupDZ-49">
          <mxGeometry x="-0.1855" relative="1" as="geometry">
            <mxPoint as="offset" />
          </mxGeometry>
        </mxCell>
        <mxCell id="it2hrmfdofYpJrzfupDZ-63" value="&lt;font style=&quot;font-size: 16px;&quot;&gt;&lt;b style=&quot;&quot;&gt;Tool Module&lt;/b&gt;&lt;/font&gt;" style="rounded=1;whiteSpace=wrap;html=1;" vertex="1" parent="1">
          <mxGeometry x="1360" y="329.61" width="100" height="60" as="geometry" />
        </mxCell>
      </root>
    </mxGraphModel>
  </diagram>
</mxfile>
